{"glyphs":{"0":{"ha":1346,"x_min":17,"x_max":1364,"o":"m 1349 836 q 1360 580 1364 711 q 1320 336 1357 449 q 1204 142 1283 224 q 989 36 1125 61 q 920 33 975 33 q 789 31 865 32 q 626 31 713 31 q 465 33 540 32 q 338 36 390 35 q 278 39 286 38 q 160 83 210 50 q 78 165 111 115 q 31 275 46 214 q 18 406 17 336 q 23 570 19 475 q 38 767 26 665 q 72 970 49 869 q 135 1152 94 1071 q 239 1288 176 1233 q 393 1351 301 1342 q 612 1359 501 1363 q 831 1354 722 1356 q 903 1355 865 1354 q 979 1353 942 1356 q 1053 1342 1017 1350 q 1122 1315 1089 1333 q 1237 1215 1193 1275 q 1306 1082 1281 1156 q 1308 1074 1307 1081 q 1311 1065 1310 1068 q 1326 998 1319 1038 q 1339 922 1333 958 q 1347 861 1344 886 q 1349 836 1349 836 m 751 272 q 806 455 790 360 q 819 648 821 550 q 804 843 818 746 q 772 1033 790 940 q 704 1189 749 1122 q 662 1099 679 1147 q 631 1000 644 1050 q 610 900 618 950 q 596 806 601 850 q 572 644 586 736 q 556 458 558 551 q 570 277 553 364 q 640 132 588 190 q 704 194 676 160 q 751 272 732 228 z "},"1":{"ha":1147,"x_min":-7,"x_max":1147,"o":"m 353 1347 q 747 1349 574 1347 q 892 1349 821 1349 q 1019 1349 964 1349 q 1109 1349 1075 1349 q 1143 1347 1143 1349 q 1147 692 1146 1018 q 1147 36 1147 367 q 1107 34 1147 35 q 1006 33 1067 33 q 875 33 946 33 q 744 33 804 33 q 643 34 683 33 q 603 36 603 35 q 603 380 603 210 q 601 724 603 550 q 569 653 585 689 q 538 582 553 618 l -7 582 q 81 774 33 679 q 175 964 128 869 q 268 1153 222 1058 q 353 1347 314 1249 z "},"2":{"ha":1379,"x_min":-87,"x_max":1379,"o":"m 1006 624 q 897 540 951 583 q 791 449 842 497 q 696 345 740 400 q 618 228 651 290 l 1379 228 l 1379 22 l 550 22 l 6 22 q 53 191 18 114 q 140 335 89 268 q 254 458 190 401 q 385 567 318 515 q 522 665 453 618 q 653 761 590 713 q 722 839 699 797 q 749 927 746 881 q 738 1024 751 974 q 694 1125 724 1074 q 593 1264 647 1213 q 539 1199 560 1233 q 463 992 478 1103 q 490 772 449 882 q 465 775 489 774 q 402 777 440 776 q 315 777 364 778 q 215 776 265 776 q -54 772 96 775 q -83 906 -78 835 q -73 1047 -87 978 q -24 1176 -58 1115 q 64 1278 10 1238 q 154 1327 108 1311 q 247 1349 200 1343 q 344 1355 294 1356 q 444 1354 393 1354 l 828 1354 q 928 1353 881 1351 q 1024 1338 976 1354 q 1150 1257 1100 1311 q 1239 1125 1200 1203 q 1274 1044 1257 1088 q 1296 956 1290 1000 q 1290 871 1301 913 q 1242 797 1279 829 q 1124 708 1185 749 q 1006 624 1064 668 z "},"3":{"ha":1357,"x_min":-1,"x_max":1493,"o":"m 1293 593 q 1341 574 1318 586 q 1382 543 1364 561 q 1473 395 1453 475 q 1472 218 1493 315 q 1445 131 1460 165 q 1408 76 1431 97 q 1351 46 1385 56 q 1267 31 1317 36 q 813 1 1043 8 q 358 17 583 -6 q 297 23 332 19 q 229 35 263 26 q 167 60 196 44 q 124 104 138 76 q 98 183 104 142 q 92 267 92 224 q 95 353 92 310 q 99 438 99 396 q 122 440 99 439 q 184 441 146 440 q 272 441 222 442 q 372 440 321 440 q 646 438 492 439 q 640 317 644 381 q 643 197 635 254 q 682 96 651 139 q 782 38 713 53 q 787 37 785 38 q 792 36 789 36 q 818 42 808 39 q 870 75 849 50 q 906 134 892 100 q 928 209 921 168 q 938 290 936 250 q 935 365 939 329 q 921 426 931 401 q 873 508 906 469 q 799 571 840 547 q 759 567 790 569 q 686 563 728 565 q 599 560 644 561 q 515 561 553 560 q 451 566 476 563 q 428 578 426 569 q 431 588 428 582 q 450 603 436 597 q 574 613 515 607 q 676 619 624 617 q 764 622 729 622 q 817 731 794 672 q 853 849 840 789 q 870 971 867 910 q 867 1088 874 1032 q 849 1172 861 1131 q 810 1246 838 1213 q 685 1142 740 1201 q 597 1009 631 1082 q 552 853 563 936 q 563 678 542 769 q 293 660 411 665 q 194 656 243 657 q 106 657 144 656 q 43 663 68 658 q 17 678 18 668 q 3 831 -1 756 q 33 976 8 907 q 103 1104 58 1044 q 211 1210 149 1164 q 360 1292 285 1264 q 515 1331 436 1319 q 675 1342 593 1342 q 843 1343 757 1343 q 933 1346 882 1343 q 1040 1349 985 1349 q 1152 1342 1096 1349 q 1257 1317 1208 1335 q 1342 1265 1306 1299 q 1394 1176 1378 1231 q 1417 1030 1415 1107 q 1404 876 1418 953 q 1362 726 1390 799 q 1293 593 1333 653 z "},"4":{"ha":1221,"x_min":25,"x_max":1350,"o":"m 1350 661 q 1294 342 1326 500 q 1238 24 1261 185 l 693 24 q 718 177 704 101 q 747 331 732 253 l 25 331 l 25 522 q 37 565 25 522 q 68 676 49 607 q 113 833 88 744 q 164 1015 138 922 q 215 1196 190 1107 q 258 1354 239 1285 q 283 1359 258 1357 q 345 1363 307 1361 q 433 1365 383 1364 q 533 1367 482 1367 q 806 1367 653 1368 q 687 951 747 1157 q 571 536 626 746 l 785 536 q 796 599 790 568 q 806 661 801 629 l 1350 661 z "},"5":{"ha":1311,"x_min":15,"x_max":1413,"o":"m 1085 789 q 1199 733 1143 772 q 1301 642 1256 694 q 1375 528 1346 590 q 1408 402 1404 467 q 1387 274 1413 338 q 1297 157 1361 211 q 1184 101 1258 124 q 1022 66 1110 79 q 842 48 935 53 q 673 42 750 43 q 544 41 596 40 q 485 43 492 42 q 313 59 397 44 q 158 118 229 74 q 77 190 111 149 q 29 292 43 232 q 21 332 26 304 q 15 388 15 360 q 22 440 15 417 q 51 467 29 463 q 90 467 53 467 q 183 469 128 468 q 306 469 239 469 q 433 470 372 469 q 540 471 493 471 q 601 471 586 471 q 608 470 604 471 q 608 469 611 469 q 620 461 618 467 q 619 450 622 456 q 612 440 617 444 q 606 435 607 435 l 569 435 q 559 386 560 414 q 564 330 558 358 q 578 276 569 301 q 594 235 586 251 q 617 195 604 215 q 642 158 629 175 q 671 131 656 142 q 703 119 686 119 q 740 142 717 119 q 787 201 763 165 q 830 278 811 236 q 854 356 849 319 q 850 459 860 403 q 822 564 840 515 q 781 645 804 613 q 739 678 758 678 q 701 644 721 674 q 683 571 682 614 q 683 571 683 571 l 683 553 q 643 551 683 551 q 542 550 603 550 q 411 550 482 550 q 280 551 340 550 q 179 551 219 551 q 139 553 139 551 q 144 964 140 760 q 129 1375 149 1168 l 674 1375 l 1381 1375 l 1381 1169 l 688 1169 q 690 990 690 1079 q 688 811 689 901 q 822 809 771 810 q 901 808 872 808 q 940 806 929 807 q 953 806 950 806 q 1019 802 986 806 q 1085 789 1053 799 z "},"6":{"ha":1333,"x_min":22,"x_max":1368,"o":"m 1265 706 q 1344 608 1321 664 q 1366 490 1368 551 q 1342 364 1364 428 q 1283 245 1319 300 q 1199 147 1246 190 q 1101 83 1151 104 q 936 38 1024 50 q 758 26 849 26 q 580 31 668 25 q 411 40 492 38 q 304 51 358 42 q 202 85 250 61 q 115 148 154 108 q 54 249 76 188 q 26 379 31 315 q 33 506 22 443 q 67 629 44 568 q 119 750 90 690 q 288 1053 197 911 q 474 1343 378 1196 l 1003 1343 q 851 1109 924 1222 q 713 868 779 996 q 682 811 697 840 q 651 751 667 782 q 874 753 764 753 q 1096 750 983 754 q 1184 741 1139 749 q 1265 706 1229 733 m 656 154 q 741 204 703 158 q 803 315 779 250 q 834 454 826 381 q 828 588 842 528 q 801 649 818 622 q 754 673 781 665 q 701 681 728 681 q 648 674 674 681 q 603 656 622 667 q 570 551 583 604 q 558 444 557 499 q 564 357 558 406 q 581 265 569 308 q 610 190 592 221 q 656 154 629 158 z "},"7":{"ha":1419,"x_min":-7,"x_max":1415,"o":"m 1415 1356 q 1335 1119 1392 1228 q 1210 912 1279 1011 q 1069 716 1142 813 q 937 516 996 619 q 842 297 878 413 q 814 40 807 181 l 281 40 q 299 257 275 156 q 367 450 324 358 q 467 626 410 542 q 584 795 524 711 q 702 965 644 879 q 806 1142 760 1050 l 542 1142 q 535 1079 539 1110 q 526 1017 531 1049 q 487 1013 526 1014 q 388 1013 447 1013 q 259 1014 328 1013 q 131 1016 190 1015 q 33 1017 72 1017 q -7 1017 -7 1017 q 13 1181 4 1100 q 32 1344 21 1263 q 92 1347 32 1346 q 249 1349 151 1349 q 470 1351 346 1350 q 724 1353 594 1353 l 1415 1356 l 1415 1356 z "},"8":{"ha":1413,"x_min":29,"x_max":1467,"o":"m 1296 692 q 1383 613 1346 660 q 1438 503 1421 565 q 1437 302 1467 388 q 1340 158 1407 217 q 1183 67 1274 100 q 1000 26 1092 35 q 944 24 989 25 q 837 24 899 24 q 706 24 775 24 q 576 24 636 24 q 474 24 515 24 q 429 24 433 24 q 285 42 354 25 q 157 107 217 58 q 59 246 89 163 q 33 417 29 329 q 76 585 38 504 q 183 714 114 665 l 185 714 q 95 803 114 747 q 93 925 76 860 q 153 1059 110 990 q 253 1186 197 1128 q 368 1285 308 1244 q 476 1336 428 1325 q 583 1352 518 1344 q 724 1363 649 1360 q 879 1363 800 1365 q 1029 1353 958 1361 q 1156 1328 1100 1344 q 1242 1286 1213 1311 q 1339 1161 1300 1233 q 1392 1010 1378 1089 q 1392 851 1406 931 q 1332 703 1379 771 q 1319 697 1329 699 q 1296 692 1310 694 m 742 747 q 814 829 790 776 q 841 943 838 882 q 829 1067 844 1004 q 785 1178 814 1129 q 704 1069 742 1129 q 647 951 667 1010 q 633 838 628 892 q 683 744 639 783 q 715 727 706 726 q 742 747 724 728 m 900 311 q 904 433 911 374 q 874 545 897 493 q 811 640 850 597 q 722 707 772 682 q 719 708 721 708 q 639 619 671 671 q 591 508 607 568 q 577 386 575 449 q 600 264 579 324 q 644 172 617 214 q 711 97 671 129 q 832 183 779 131 q 900 311 885 235 z "},"9":{"ha":1374,"x_min":13,"x_max":1389,"o":"m 450 1353 q 528 1352 475 1353 q 653 1351 582 1351 q 806 1349 724 1350 q 969 1349 888 1349 q 1389 1344 1161 1346 q 1363 1019 1372 1183 q 1347 689 1354 854 q 1329 359 1339 524 q 1300 33 1319 194 l 757 33 q 778 246 769 138 q 792 458 786 354 q 678 456 739 456 q 565 457 618 456 q 474 460 511 458 q 431 461 436 461 q 266 499 344 464 q 131 595 188 535 q 43 738 74 656 q 22 917 13 819 q 35 1008 26 961 q 57 1102 43 1056 q 92 1191 71 1149 q 143 1267 114 1233 q 210 1319 174 1301 q 285 1344 246 1338 q 365 1352 324 1351 q 450 1353 407 1353 m 588 732 q 635 653 608 690 q 696 583 663 615 q 720 576 704 581 q 753 576 736 572 q 783 595 769 579 q 801 647 797 611 q 813 909 807 779 q 828 1169 818 1039 q 810 1216 829 1199 q 764 1241 790 1233 q 713 1249 738 1249 q 679 1246 689 1250 q 607 1129 636 1196 q 565 993 578 1063 q 556 855 551 924 q 588 732 561 786 z "},"D":{"ha":1454,"x_min":-78,"x_max":1443,"o":"m 1351 1253 q 1408 1224 1390 1253 q 1433 1154 1426 1194 q 1438 1071 1439 1114 q 1438 1000 1436 1028 q 1443 756 1443 878 q 1442 510 1443 633 q 1440 400 1442 460 q 1426 283 1438 340 q 1387 177 1414 226 q 1308 99 1360 128 q 1217 60 1265 74 q 1119 40 1169 46 q 1019 32 1069 33 q 919 31 968 31 q 458 31 689 26 q 340 34 400 32 q 225 56 281 36 q 22 300 44 118 q 29 801 29 551 q 6 1303 29 1051 q -3 1308 6 1303 q -24 1319 -11 1313 q -51 1335 -36 1326 q -78 1353 -65 1344 q -39 1353 -76 1351 q 54 1358 -1 1356 q 175 1363 110 1360 q 299 1365 240 1365 q 402 1363 358 1365 q 457 1353 446 1360 q 571 1294 511 1317 q 696 1261 631 1272 q 738 1256 717 1258 q 779 1250 758 1253 q 1065 1255 922 1254 q 1351 1253 1208 1256 m 881 246 q 903 381 894 294 q 917 571 913 468 q 922 782 922 674 q 918 982 922 890 q 905 1138 914 1074 q 882 1215 896 1201 q 714 1226 800 1214 q 546 1239 628 1239 q 563 775 564 1006 q 556 311 561 544 q 565 243 557 283 q 591 165 574 203 q 638 101 608 128 q 714 72 668 74 q 771 87 744 72 q 818 125 797 101 q 855 180 839 149 q 881 246 871 211 m 93 169 q 281 153 193 169 q 453 117 368 136 q 624 81 538 97 q 811 64 711 64 q 1029 87 911 64 q 1293 169 1147 110 l 1293 132 l 1293 93 q 1290 83 1290 89 q 1290 74 1290 78 q 1280 57 1288 58 q 1269 49 1272 56 q 1263 41 1267 46 q 1254 35 1258 36 q 1251 31 1253 32 q 1244 28 1249 28 q 1241 31 1242 28 q 1239 35 1240 35 q 1234 38 1236 36 q 1228 36 1232 39 q 1225 26 1226 36 q 1221 0 1222 14 q 1213 -21 1219 -14 q 1210 -30 1213 -28 q 1206 -35 1208 -32 l 1200 -35 q 1192 -37 1196 -37 q 1182 -39 1188 -36 q 1176 -47 1181 -39 q 1172 -62 1172 -54 q 1167 -76 1168 -68 q 1167 -97 1167 -85 q 1167 -129 1163 -108 q 1168 -137 1167 -135 q 1169 -143 1169 -140 q 1171 -149 1169 -146 q 1172 -154 1172 -151 q 1169 -159 1169 -156 q 1169 -164 1169 -162 q 1159 -169 1165 -169 q 1149 -162 1153 -169 q 1148 -149 1147 -156 q 1150 -136 1149 -142 q 1154 -89 1157 -117 q 1153 -74 1154 -81 q 1150 -62 1153 -67 q 1143 -51 1147 -57 q 1142 -49 1143 -51 l 1142 -47 l 1140 -47 l 1138 -47 l 1128 -47 l 1128 -51 l 1125 -56 q 1127 -66 1125 -61 q 1128 -78 1129 -71 l 1128 -81 q 1117 -89 1122 -90 q 1110 -81 1110 -89 q 1108 -73 1107 -78 q 1110 -65 1110 -68 q 1111 -56 1111 -62 q 1110 -47 1111 -50 l 1107 -42 q 1104 -40 1104 -39 q 1104 -39 1104 -42 l 1103 -39 q 1096 -35 1101 -35 l 1096 -31 l 1092 -31 l 1090 -29 l 1088 -29 q 1085 -26 1085 -29 q 1074 -21 1082 -21 q 1065 -22 1068 -21 q 1058 -26 1063 -22 l 1056 -26 q 1053 -29 1053 -26 q 1050 -30 1051 -29 q 1046 -31 1049 -31 q 1044 -33 1044 -31 q 1040 -35 1043 -35 l 1039 -35 l 1039 -39 q 1033 -47 1035 -39 l 1031 -47 l 1031 -50 q 1028 -51 1031 -51 l 1025 -56 q 1022 -63 1025 -58 q 1011 -68 1018 -68 l 1007 -65 l 1001 -65 q 988 -67 994 -65 q 979 -69 982 -68 q 975 -73 976 -69 q 971 -78 974 -76 l 969 -78 q 968 -81 968 -78 q 963 -86 967 -81 l 961 -86 l 961 -89 l 960 -89 q 958 -90 960 -90 l 957 -90 l 956 -97 l 943 -97 q 938 -94 940 -97 q 933 -89 935 -90 q 927 -82 931 -86 q 922 -76 924 -78 q 917 -73 919 -76 q 914 -68 915 -69 q 892 -58 900 -64 q 885 -56 889 -56 q 878 -56 881 -56 q 871 -60 872 -58 q 869 -62 869 -61 q 865 -64 867 -62 q 863 -65 864 -65 q 857 -62 860 -65 q 851 -56 854 -58 q 838 -47 840 -47 q 831 -45 833 -47 q 821 -47 828 -43 q 811 -52 815 -47 q 806 -62 807 -57 q 799 -73 801 -67 q 794 -86 797 -79 q 785 -125 788 -111 q 788 -172 783 -139 q 790 -194 788 -182 q 794 -215 792 -206 q 788 -250 799 -237 q 774 -254 785 -254 q 765 -246 769 -253 q 761 -232 761 -239 q 760 -226 758 -229 q 761 -221 761 -224 q 763 -208 761 -214 q 767 -194 764 -201 q 767 -187 767 -192 q 768 -176 768 -183 l 768 -162 q 769 -141 771 -147 q 768 -128 768 -135 q 764 -106 767 -118 q 758 -86 761 -94 l 758 -81 q 753 -69 754 -78 q 750 -65 751 -68 q 746 -58 749 -61 l 746 -57 l 744 -56 l 742 -53 q 740 -47 740 -51 l 738 -47 q 736 -42 738 -43 q 733 -39 735 -42 q 731 -33 733 -36 q 728 -29 729 -31 q 722 -24 726 -26 q 713 -21 718 -21 q 707 -32 710 -25 q 701 -39 704 -39 q 695 -40 697 -42 q 691 -33 693 -37 q 685 -25 689 -29 q 676 -21 682 -21 q 669 -26 671 -21 q 668 -39 668 -32 q 667 -53 668 -46 q 661 -62 667 -60 q 653 -73 654 -65 q 646 -81 653 -81 q 639 -86 642 -81 q 633 -97 636 -92 q 629 -103 631 -100 q 625 -115 628 -107 q 624 -123 624 -117 q 624 -136 624 -129 q 622 -182 621 -157 q 624 -233 624 -207 l 624 -242 l 624 -244 l 624 -254 q 624 -274 624 -265 q 625 -292 624 -282 l 625 -299 q 624 -325 628 -314 q 614 -336 621 -336 q 599 -314 599 -336 q 599 -292 597 -303 q 604 -268 601 -281 l 604 -244 l 604 -193 l 604 -167 q 603 -143 604 -154 q 600 -117 603 -132 q 592 -97 599 -106 q 590 -96 590 -97 l 590 -90 l 586 -89 l 586 -86 l 583 -83 q 579 -78 579 -79 q 576 -73 576 -76 q 574 -69 576 -69 q 567 -66 571 -68 q 561 -58 564 -64 q 554 -53 557 -56 q 546 -47 551 -50 q 517 -68 524 -47 q 512 -93 514 -78 q 513 -124 510 -108 q 513 -142 513 -133 q 514 -162 514 -150 q 517 -182 517 -169 q 513 -199 518 -194 q 499 -203 506 -207 q 494 -194 499 -194 l 494 -176 q 495 -159 494 -167 q 496 -143 496 -151 q 499 -117 499 -132 q 499 -89 499 -103 q 499 -76 499 -82 q 496 -68 499 -69 q 489 -51 496 -62 q 485 -49 488 -51 q 481 -47 483 -47 q 471 -56 479 -47 q 466 -62 469 -58 q 457 -65 463 -65 q 447 -57 450 -65 q 442 -42 443 -49 l 442 -21 q 438 -16 439 -21 q 435 -8 436 -11 q 428 -2 432 -6 q 421 8 424 1 l 415 8 l 415 10 q 413 11 414 10 l 410 14 q 406 19 410 17 l 403 19 q 401 24 403 24 l 397 26 q 394 35 394 28 l 392 35 q 388 37 390 36 q 383 40 385 38 q 375 42 381 40 q 365 44 369 44 q 346 40 351 44 l 346 38 q 343 36 346 36 l 340 36 q 338 35 339 36 q 332 22 333 28 q 328 10 331 17 q 324 1 325 7 q 319 -8 324 -4 l 319 -12 l 318 -12 q 317 -15 317 -12 q 309 -15 314 -15 q 301 -12 304 -15 l 296 -4 l 294 -4 q 294 -3 294 -4 l 294 0 q 294 11 293 7 q 294 19 294 15 q 293 22 294 19 l 293 24 q 288 32 293 26 q 276 44 282 38 q 274 47 275 47 l 269 49 q 263 50 265 51 q 257 49 260 49 q 243 48 250 49 q 229 47 236 47 q 219 42 224 44 q 210 40 214 40 q 196 38 201 38 q 183 44 190 38 l 181 44 q 178 47 178 44 l 176 49 q 172 51 174 49 q 169 53 171 53 q 165 56 167 56 q 163 58 164 57 q 153 67 154 67 q 144 75 150 75 l 140 75 q 133 77 136 75 q 126 79 131 79 q 101 106 107 90 q 99 116 100 111 q 93 121 97 121 l 93 132 l 93 135 l 93 143 l 93 160 l 93 169 m 693 -21 q 678 -33 686 -26 q 662 -49 671 -40 q 646 -69 653 -58 q 627 -141 629 -93 q 625 -272 625 -189 q 628 -349 625 -314 q 633 -410 632 -385 q 629 -451 633 -436 q 611 -467 625 -467 l 610 -467 l 607 -467 l 604 -467 q 587 -446 590 -467 q 584 -394 583 -425 q 588 -331 585 -364 q 592 -272 592 -297 q 592 -172 593 -221 q 585 -96 592 -124 q 580 -69 582 -82 q 575 -44 578 -56 q 571 -21 572 -32 l 575 -21 l 576 -21 l 688 -21 l 693 -21 m 1243 113 q 1228 100 1235 107 q 1196 65 1214 89 q 1178 -6 1181 42 q 1178 -132 1176 -53 q 1181 -207 1178 -172 q 1184 -267 1183 -242 q 1181 -308 1185 -293 q 1163 -322 1176 -322 l 1158 -322 l 1157 -322 q 1140 -302 1143 -322 q 1137 -252 1136 -282 q 1140 -190 1138 -222 q 1143 -132 1143 -157 q 1144 -35 1144 -83 q 1138 39 1143 13 q 1133 65 1135 53 q 1128 89 1131 78 q 1124 113 1125 101 l 1128 113 l 1129 113 l 1239 113 l 1243 113 m 1346 114 q 1338 107 1343 111 q 1328 97 1333 103 q 1319 85 1324 92 q 1310 40 1311 69 q 1310 -37 1308 11 q 1313 -122 1310 -87 q 1301 -156 1317 -156 l 1300 -154 l 1299 -156 q 1288 -143 1290 -156 q 1287 -112 1286 -131 q 1289 -73 1288 -93 q 1290 -37 1290 -53 q 1291 23 1292 -7 q 1288 69 1290 53 q 1284 85 1285 78 q 1282 100 1283 93 q 1281 114 1281 107 l 1282 114 l 1343 114 l 1346 114 z "},"E":{"ha":1301,"x_min":-112,"x_max":1314,"o":"m 757 519 q 781 528 757 525 q 845 533 806 532 q 934 534 885 535 q 1036 532 983 533 q 1313 519 1158 528 q 1275 288 1297 401 q 1231 57 1253 174 q 1197 48 1231 51 q 1115 41 1164 44 q 1007 35 1065 38 q 896 32 949 33 q 804 30 843 31 q 756 29 765 29 q 493 26 625 31 q 231 29 361 22 q 192 32 219 29 q 129 40 164 35 q 56 51 94 44 q -15 68 18 58 q -70 90 -47 78 q -97 117 -93 101 q -101 222 -112 168 q -63 327 -89 276 q -3 424 -37 378 q 63 506 31 469 q 142 591 101 550 q 231 667 183 632 q 259 687 246 678 q 288 704 272 696 q 247 712 264 707 q 226 725 231 717 q 181 804 208 760 q 124 897 153 849 q 69 998 96 946 q 24 1102 42 1050 q -1 1203 6 1154 q 7 1296 -7 1253 q 28 1336 14 1321 q 60 1360 42 1351 q 101 1371 79 1368 q 146 1374 122 1374 q 211 1374 156 1374 q 350 1376 267 1375 q 537 1376 433 1376 q 747 1377 640 1376 q 954 1378 853 1378 q 1134 1378 1056 1378 q 1260 1378 1213 1378 q 1308 1376 1308 1378 q 1312 1177 1310 1276 q 1308 978 1314 1078 q 1267 974 1308 975 q 1163 973 1225 972 q 1030 975 1101 974 q 897 977 958 976 q 794 978 835 978 q 753 978 753 979 q 756 1080 756 1029 q 756 1181 756 1131 q 662 1183 711 1182 q 565 1185 613 1183 q 594 1097 576 1140 q 628 1021 613 1054 q 641 990 632 1010 q 660 944 650 969 q 684 890 671 918 q 710 833 697 861 q 778 834 740 833 q 848 834 815 835 q 902 833 881 833 q 924 831 924 832 q 923 723 922 775 q 922 619 924 671 q 906 616 922 617 q 861 615 889 615 q 797 615 833 614 q 719 615 760 615 q 665 559 690 588 q 618 506 640 531 q 571 447 596 479 q 523 380 546 415 q 481 307 500 344 q 454 231 463 269 q 516 231 481 231 q 588 233 551 232 q 656 234 624 233 q 708 235 689 235 q 735 378 722 307 q 757 519 747 449 m 892 43 q 874 28 882 36 q 857 11 867 21 q 839 -11 847 1 q 817 -91 819 -37 q 817 -235 815 -144 q 820 -319 817 -281 q 824 -387 824 -358 q 820 -433 825 -417 q 800 -450 815 -450 q 796 -449 797 -450 q 794 -450 796 -449 q 774 -427 779 -450 q 771 -371 769 -404 q 776 -300 772 -337 q 779 -235 779 -262 q 780 -124 781 -178 q 772 -40 779 -71 q 765 -10 768 -25 q 760 17 763 6 q 756 43 757 31 l 761 43 l 763 43 l 886 43 l 892 43 m 1008 44 q 999 36 1004 42 q 989 25 994 32 q 979 11 983 18 q 967 -38 968 -6 q 967 -128 965 -71 q 969 -180 967 -156 q 971 -222 971 -204 q 968 -251 971 -240 q 957 -261 965 -261 l 956 -260 q 954 -261 956 -261 q 943 -247 946 -261 q 941 -211 940 -232 q 944 -167 942 -190 q 946 -128 946 -144 q 947 -59 947 -92 q 942 -7 946 -26 q 938 12 939 3 q 935 28 936 21 q 933 44 933 36 l 936 44 l 1006 44 l 1008 44 m 425 50 l 426 50 q 408 42 418 47 q 390 32 400 38 q 369 19 379 26 q 347 -26 350 4 q 346 -108 344 -57 q 349 -156 346 -133 q 353 -194 353 -178 q 349 -221 354 -211 q 328 -231 344 -231 l 325 -231 l 322 -231 q 301 -217 306 -231 q 297 -185 296 -204 q 301 -145 297 -167 q 306 -108 306 -124 q 306 -46 307 -76 q 297 3 304 -15 q 285 35 289 18 q 281 50 282 42 l 288 50 l 419 50 l 425 50 m 281 50 q 264 47 272 49 q 247 45 257 46 q 226 42 236 44 q 205 30 207 38 q 204 10 203 22 q 207 -16 204 3 q 210 -55 210 -35 q 204 -91 210 -75 q 182 -107 199 -107 l 181 -107 l 179 -107 l 175 -107 q 155 -90 158 -107 q 153 -53 151 -74 q 160 -13 156 -32 q 165 10 164 6 q 165 25 167 17 q 157 38 164 33 q 144 46 149 42 l 140 50 l 146 50 l 147 50 l 281 50 z "},"F":{"ha":950,"x_min":-193,"x_max":1129,"o":"m 1018 1035 q 992 1029 1017 1031 q 930 1027 968 1028 q 842 1026 892 1026 q 743 1028 793 1026 q 474 1035 624 1031 q 494 1097 485 1065 q 515 1160 504 1128 q 449 1160 483 1160 q 382 1161 415 1161 q 394 1117 383 1157 q 419 1024 404 1076 q 451 915 435 971 q 479 821 467 858 q 532 822 493 821 q 621 822 571 822 q 725 822 671 822 q 824 822 779 822 q 899 822 869 822 q 928 819 928 821 q 940 764 935 789 q 949 716 944 739 q 958 669 954 693 q 968 615 963 644 q 925 612 968 613 q 818 611 882 611 q 681 612 754 611 q 547 614 607 613 q 645 324 596 468 q 739 32 694 179 q 468 25 588 26 q 368 24 417 24 q 281 24 319 24 q 218 27 242 25 q 194 32 194 29 q 138 205 175 94 q 56 447 100 315 q -35 721 11 579 q -117 988 -81 863 q -173 1212 -153 1114 q -186 1354 -193 1310 q -136 1359 -186 1357 q -3 1362 -86 1361 q 186 1362 79 1363 q 408 1360 293 1361 q 637 1358 522 1360 q 849 1354 751 1356 q 1018 1351 946 1353 q 1119 1349 1090 1350 l 1129 1349 q 1071 1193 1096 1272 q 1018 1035 1046 1114 m 715 36 l 717 36 q 688 24 703 31 q 657 8 674 17 q 625 -12 640 -1 q 590 -85 594 -36 q 588 -215 586 -133 q 595 -293 589 -257 q 602 -355 601 -329 q 594 -396 603 -381 q 560 -411 586 -411 l 557 -411 l 551 -411 q 516 -390 524 -411 q 510 -340 508 -369 q 517 -276 511 -310 q 525 -215 524 -242 q 526 -115 528 -164 q 511 -39 524 -67 q 499 -12 504 -25 q 492 13 494 1 q 485 36 488 25 l 494 36 l 496 36 l 707 36 l 715 36 m 478 35 q 467 32 472 33 q 456 29 461 31 q 443 26 450 28 q 429 15 431 22 q 428 -6 428 7 q 430 -31 428 -12 q 432 -68 432 -49 q 428 -103 432 -87 q 413 -118 424 -118 l 411 -118 l 410 -118 q 397 -102 400 -118 q 396 -66 394 -86 q 400 -28 397 -46 q 403 -6 403 -10 q 403 10 404 1 q 397 22 403 18 q 390 31 392 28 q 388 35 389 33 l 392 35 l 475 35 l 478 35 m 433 36 q 406 32 421 33 q 378 28 393 29 q 347 25 363 28 q 324 17 332 22 q 313 6 317 13 q 310 -10 310 -1 q 311 -29 311 -18 q 317 -70 313 -40 q 320 -132 321 -100 q 310 -189 319 -164 q 274 -214 300 -214 l 271 -214 l 265 -214 q 233 -187 239 -214 q 230 -128 226 -161 q 240 -65 233 -94 q 247 -29 247 -36 q 249 -2 250 -15 q 236 18 247 11 q 218 31 225 24 q 211 36 214 33 l 219 36 l 433 36 z "},"G":{"ha":1354,"x_min":-61,"x_max":1388,"o":"m 603 796 q 647 797 603 796 q 761 797 692 797 q 918 797 831 797 q 1092 796 1006 796 q 1253 794 1178 796 q 1378 792 1329 793 q 1388 790 1381 790 q 1366 673 1381 744 q 1333 520 1351 601 q 1296 356 1315 439 q 1258 206 1276 274 q 1225 92 1240 138 q 1201 42 1210 47 q 1160 33 1186 32 q 1119 33 1135 33 q 624 26 869 24 q 129 31 378 28 q 88 30 104 31 q 58 34 71 29 q 38 51 46 39 q 25 89 31 64 q 17 149 22 100 q 6 272 13 199 q -9 436 -1 346 q -24 619 -17 526 q -39 799 -32 711 q -51 956 -46 888 q -58 1065 -56 1024 q -61 1107 -61 1107 q 1 1128 -47 1113 q 119 1166 50 1144 q 272 1213 189 1188 q 435 1264 354 1239 q 591 1313 517 1289 q 718 1354 665 1336 q 770 1358 728 1357 q 871 1360 813 1360 q 995 1359 929 1360 q 1118 1357 1061 1358 q 1215 1355 1175 1356 q 1263 1354 1256 1354 q 1261 1353 1263 1354 q 1263 1354 1263 1353 q 1263 1134 1263 1243 q 1264 914 1264 1025 q 1224 912 1264 913 q 1122 911 1183 911 q 991 911 1061 911 q 860 911 921 911 q 758 912 799 911 q 718 914 718 913 l 718 1194 q 693 1187 713 1193 q 648 1172 674 1181 q 593 1154 622 1164 q 540 1135 564 1144 q 500 1117 515 1125 q 485 1107 485 1110 q 487 1064 485 1103 q 493 965 489 1025 q 502 828 497 904 q 512 674 507 753 q 522 518 517 594 q 531 380 526 442 q 538 278 535 318 q 540 232 540 239 l 717 232 q 736 310 724 260 q 762 415 749 361 q 785 512 775 468 q 799 571 796 556 q 722 572 758 571 q 658 573 685 572 q 615 574 631 574 q 599 574 599 574 q 601 684 601 629 q 603 796 601 739 m 275 33 q 253 24 264 29 q 210 -3 231 14 q 183 -54 186 -19 q 183 -149 181 -89 q 188 -203 183 -178 q 193 -248 192 -229 q 188 -277 194 -267 q 164 -287 182 -287 l 161 -287 l 160 -287 l 156 -287 q 131 -273 136 -287 q 126 -237 125 -258 q 132 -191 128 -215 q 136 -149 136 -167 q 136 -76 138 -111 q 128 -21 135 -40 q 120 0 124 -10 q 114 17 117 10 q 110 33 111 25 l 114 33 l 117 33 l 268 33 l 275 33 m 368 32 l 371 32 q 353 17 361 25 q 336 0 346 10 q 318 -22 326 -10 q 297 -100 299 -47 q 296 -240 294 -153 q 300 -323 297 -285 q 303 -389 303 -361 q 299 -433 304 -417 q 281 -450 294 -450 l 276 -450 l 275 -450 q 255 -427 260 -450 q 251 -372 250 -404 q 255 -304 251 -340 q 258 -240 258 -268 q 260 -132 261 -185 q 251 -50 258 -79 q 247 -20 249 -35 q 242 6 244 -6 q 238 32 239 19 l 243 32 l 363 32 l 368 32 m 604 33 q 589 31 596 32 q 574 28 582 29 q 558 25 565 26 q 538 11 540 21 q 538 -14 536 1 q 541 -43 539 -21 q 542 -88 543 -65 q 536 -129 542 -111 q 517 -147 531 -147 l 514 -147 l 511 -147 q 494 -128 497 -147 q 492 -85 490 -110 q 497 -40 493 -61 q 501 -14 501 -18 q 503 6 504 -4 q 494 19 501 15 q 490 24 492 22 q 485 29 488 26 l 481 33 l 486 33 l 604 33 m 672 25 q 663 15 668 21 q 651 1 657 8 q 642 -48 642 -15 q 642 -136 642 -81 q 643 -187 642 -164 q 645 -228 644 -210 q 643 -256 646 -246 q 632 -265 640 -265 q 631 -264 631 -265 q 628 -265 631 -265 q 617 -251 619 -265 q 616 -217 615 -237 q 618 -175 617 -197 q 619 -136 619 -153 q 620 -67 621 -100 q 615 -17 619 -35 q 613 2 614 -7 q 611 18 613 11 q 608 33 610 26 l 610 33 l 679 33 l 681 33 l 672 25 m 1093 28 q 1087 22 1090 25 q 1081 14 1083 18 q 1075 -17 1075 3 q 1075 -69 1075 -36 q 1078 -124 1075 -101 q 1069 -147 1081 -147 q 1068 -146 1068 -147 q 1067 -147 1068 -147 q 1061 -139 1063 -147 q 1060 -118 1060 -131 q 1060 -92 1060 -106 q 1061 -69 1061 -79 q 1063 -28 1063 -47 q 1060 3 1063 -8 q 1057 24 1057 17 q 1056 33 1056 29 l 1097 33 l 1099 33 l 1093 28 z "},"H":{"ha":1294,"x_min":22,"x_max":1399,"o":"m 828 1632 q 871 1637 828 1636 q 977 1638 914 1638 q 1114 1636 1040 1638 q 1251 1633 1188 1635 q 1356 1631 1314 1632 q 1399 1632 1399 1631 q 1372 1231 1388 1432 q 1338 830 1356 1031 q 1305 428 1321 629 q 1276 26 1289 228 l 706 26 q 715 173 710 101 q 726 317 721 244 l 596 317 q 597 173 596 244 q 597 26 597 101 q 555 26 597 26 q 449 25 513 25 q 313 24 386 25 q 176 24 239 24 q 70 25 113 25 q 28 26 28 25 q 26 663 28 347 q 22 1300 24 979 q 65 1301 22 1300 q 170 1301 107 1301 q 308 1301 233 1301 q 445 1301 382 1301 q 551 1301 508 1301 q 593 1300 593 1300 q 594 909 593 1103 q 596 519 594 715 l 740 519 q 788 1076 764 799 q 828 1632 813 1353 m 314 25 l 315 25 q 303 22 308 24 q 290 19 297 21 q 276 17 283 18 q 261 4 263 13 q 261 -18 260 -4 q 263 -44 261 -25 q 265 -85 265 -64 q 261 -122 265 -106 q 246 -139 257 -139 l 244 -139 l 243 -139 l 242 -139 q 228 -122 231 -139 q 226 -83 225 -104 q 231 -42 228 -61 q 235 -18 235 -22 q 234 -1 235 -10 q 229 11 233 7 q 221 19 222 15 l 218 25 l 221 25 l 222 25 l 311 25 l 314 25 m 225 26 q 200 24 213 25 q 176 21 189 22 q 149 17 163 19 q 118 -1 121 10 q 117 -31 115 -11 q 122 -67 118 -40 q 124 -122 125 -93 q 115 -172 124 -150 q 85 -194 107 -194 l 81 -194 l 76 -194 q 47 -171 53 -194 q 44 -118 42 -147 q 54 -62 47 -89 q 63 -31 61 -36 q 63 -8 64 -19 q 51 10 61 3 q 42 15 46 13 q 35 21 38 18 q 28 26 31 24 l 35 26 l 36 26 l 225 26 m 876 26 l 878 26 q 856 17 867 22 q 833 6 844 13 q 810 -8 821 -1 q 784 -62 786 -26 q 782 -160 782 -99 q 788 -218 783 -192 q 793 -264 792 -244 q 788 -294 794 -283 q 763 -306 782 -306 l 760 -306 l 758 -306 l 754 -306 q 729 -290 735 -306 q 724 -252 724 -275 q 730 -204 725 -229 q 735 -160 735 -179 q 735 -86 736 -124 q 725 -29 733 -49 q 711 8 715 -11 q 706 26 708 17 l 713 26 l 871 26 l 876 26 m 975 25 l 976 25 q 958 10 968 18 q 940 -8 950 3 q 921 -31 931 -18 q 899 -110 901 -56 q 900 -257 897 -165 q 903 -342 900 -303 q 908 -410 907 -381 q 904 -456 908 -439 q 885 -472 900 -472 l 882 -472 l 881 -472 l 878 -472 q 857 -449 861 -472 q 853 -392 853 -425 q 858 -322 854 -358 q 863 -257 863 -285 q 862 -144 863 -199 q 854 -58 861 -90 q 848 -29 850 -43 q 843 -3 846 -15 q 839 25 840 11 l 844 25 l 971 25 l 975 25 m 1218 29 q 1208 21 1214 26 q 1199 10 1204 17 q 1190 -3 1194 4 q 1179 -49 1181 -18 q 1179 -132 1178 -79 q 1183 -221 1181 -185 q 1171 -257 1186 -257 q 1169 -256 1169 -257 q 1168 -256 1169 -256 l 1168 -257 q 1157 -244 1160 -257 q 1155 -211 1154 -231 q 1158 -170 1156 -192 q 1160 -132 1160 -149 q 1159 -68 1160 -100 q 1156 -19 1158 -36 q 1151 -2 1153 -11 q 1149 14 1150 7 q 1147 29 1147 22 l 1150 29 l 1215 29 l 1218 29 z "},"I":{"ha":568,"x_min":0,"x_max":576,"o":"m 10 1069 q 51 1072 10 1071 q 156 1073 93 1072 q 293 1074 219 1074 q 430 1073 367 1074 q 535 1072 493 1072 q 576 1069 576 1071 q 572 549 576 807 q 568 29 567 292 q 526 27 568 28 q 422 26 485 26 q 285 25 358 25 q 148 26 211 25 q 43 27 85 26 q 1 29 1 28 q 5 549 0 292 q 10 1069 10 807 m 571 1172 q 529 1169 571 1171 q 424 1165 488 1167 q 288 1163 361 1164 q 151 1160 214 1161 q 46 1158 88 1158 q 4 1160 4 1158 q 3 1258 3 1208 q 1 1356 3 1307 q 43 1358 1 1357 q 148 1362 85 1360 q 285 1365 211 1364 q 422 1367 358 1367 q 526 1369 485 1368 q 568 1368 568 1369 q 569 1270 569 1319 q 571 1172 569 1221 m 174 29 q 151 19 163 25 q 129 8 142 15 q 106 -7 117 1 q 81 -61 83 -25 q 81 -160 78 -97 q 85 -217 81 -190 q 90 -263 89 -243 q 84 -294 90 -283 q 58 -306 78 -306 l 57 -306 l 54 -306 l 50 -306 q 25 -290 31 -306 q 20 -251 19 -274 q 26 -203 21 -228 q 31 -160 31 -178 q 32 -84 33 -121 q 22 -26 31 -47 q 13 -6 17 -15 q 7 11 10 3 q 1 29 3 19 l 10 29 l 165 29 l 174 29 m 272 26 q 254 13 263 21 q 238 -5 247 6 q 219 -29 228 -15 q 198 -108 200 -54 q 197 -254 196 -162 q 200 -340 197 -300 q 203 -410 203 -381 q 200 -456 204 -439 q 181 -472 196 -472 l 179 -472 l 176 -472 l 174 -472 q 153 -449 158 -472 q 150 -392 149 -425 q 155 -321 151 -358 q 160 -254 158 -283 q 159 -142 160 -197 q 151 -57 158 -87 q 145 -26 147 -42 q 140 0 143 -11 q 136 26 138 14 l 140 26 l 142 26 l 267 26 l 272 26 m 517 29 q 501 26 510 28 q 485 24 494 25 q 468 21 476 22 q 447 6 450 15 q 446 -18 444 -3 q 449 -49 447 -26 q 451 -95 451 -71 q 446 -138 451 -119 q 425 -157 440 -157 l 422 -157 l 421 -157 q 402 -137 406 -157 q 400 -93 399 -118 q 406 -46 401 -68 q 410 -18 410 -24 q 411 0 413 -10 q 401 14 410 10 q 392 24 394 18 q 389 29 389 26 l 393 29 l 517 29 z "},"J":{"ha":1142,"x_min":-46,"x_max":1235,"o":"m 1122 1340 q 1203 1339 1172 1339 q 1235 1338 1235 1339 q 1233 1236 1235 1286 q 1232 1135 1232 1186 q 1202 1133 1232 1133 q 1124 1132 1172 1132 q 1129 932 1126 1032 q 1133 731 1132 832 q 1133 553 1133 642 q 1125 374 1132 464 q 1121 322 1122 350 q 1115 265 1119 293 q 1103 210 1111 236 q 1078 165 1094 183 q 1016 112 1050 133 q 943 76 982 90 q 864 53 904 61 q 785 43 824 46 q 589 33 686 35 q 389 28 492 31 q 280 28 342 26 q 160 41 218 31 q 59 72 103 51 q 4 125 15 92 q -35 324 -28 221 q -46 532 -43 428 q -3 533 -46 532 q 101 534 39 533 q 238 535 164 535 q 375 535 313 535 q 480 534 438 535 q 522 532 522 533 q 525 385 522 460 q 540 238 528 310 q 563 398 560 317 q 567 558 565 479 q 565 845 569 703 q 556 1132 560 988 q 433 1133 483 1132 q 383 1135 383 1133 q 385 1236 385 1186 q 386 1338 386 1286 q 399 1338 386 1338 q 435 1340 413 1339 q 489 1340 458 1340 q 554 1340 519 1340 q 554 1375 554 1358 q 556 1408 554 1392 q 580 1411 556 1410 q 644 1413 604 1413 q 735 1413 683 1413 q 839 1413 786 1413 q 1122 1408 964 1411 l 1122 1375 l 1122 1340 m 1036 108 l 1036 100 l 1036 94 l 1036 86 l 1036 81 q 1031 68 1033 76 q 1023 60 1028 64 q 1011 54 1018 56 q 999 53 1006 53 q 996 52 997 51 q 993 51 994 53 q 988 46 990 51 q 984 43 986 44 q 981 40 982 42 q 979 40 979 40 q 978 39 979 39 l 975 39 q 969 35 971 36 l 968 33 q 967 32 968 32 q 965 31 967 31 l 963 31 q 952 28 958 28 q 940 28 946 28 q 932 31 936 31 q 925 32 928 31 q 913 35 918 35 q 901 36 908 35 l 892 36 q 889 35 890 36 q 886 35 888 35 q 885 32 886 33 l 882 31 q 876 26 879 28 q 869 21 872 24 l 869 17 l 869 4 l 869 3 l 868 3 q 867 0 868 1 q 863 -6 865 -1 q 861 -3 861 -10 q 858 -3 861 0 q 851 -3 854 -6 q 849 -1 850 -3 l 847 -1 q 844 5 844 1 q 843 11 844 8 q 833 25 839 19 l 831 25 l 831 26 l 828 26 l 826 28 l 825 28 q 818 31 822 31 q 810 31 814 31 q 797 28 800 31 q 790 25 793 28 l 788 25 q 785 24 785 25 q 783 22 785 22 q 782 21 783 21 l 781 21 l 779 18 l 778 17 l 775 17 q 774 15 774 17 q 772 14 774 14 q 767 11 769 11 q 765 8 767 10 q 753 -1 758 7 q 750 -5 750 -3 q 749 -10 750 -7 q 747 -15 747 -11 l 747 -19 q 735 -35 744 -33 q 726 -33 729 -35 q 721 -29 722 -31 q 717 -26 718 -28 q 714 -24 717 -24 q 710 -26 711 -24 q 708 -28 710 -28 q 704 -31 706 -29 q 701 -35 703 -33 q 700 -42 699 -39 q 699 -50 701 -44 q 699 -66 699 -57 q 701 -82 699 -75 q 704 -103 704 -93 q 703 -112 704 -111 q 699 -117 703 -117 q 694 -120 697 -121 q 690 -117 692 -119 q 685 -106 685 -112 q 686 -92 685 -99 q 687 -82 686 -86 q 688 -71 688 -78 q 690 -53 690 -62 q 685 -37 689 -44 q 672 -26 683 -29 l 653 -42 q 649 -53 651 -47 q 641 -62 646 -57 q 629 -68 636 -67 q 625 -95 626 -68 q 623 -160 624 -122 q 622 -237 622 -197 q 622 -303 622 -276 l 622 -307 q 622 -332 622 -319 q 624 -356 622 -344 q 626 -399 626 -382 q 617 -424 625 -417 q 604 -432 614 -429 l 603 -432 l 599 -432 q 586 -424 592 -432 q 579 -394 579 -415 q 582 -340 579 -374 q 582 -322 582 -331 q 583 -307 582 -314 q 583 -260 583 -294 q 583 -187 583 -225 q 581 -118 582 -150 q 579 -78 581 -86 q 575 -58 576 -67 q 572 -42 574 -49 q 570 -36 571 -39 q 565 -31 569 -33 q 560 -26 561 -29 q 558 -19 558 -22 q 558 -12 558 -15 q 551 -10 557 -10 q 540 -15 542 -10 q 532 -19 539 -21 q 526 -16 529 -19 q 521 -10 524 -12 q 513 -10 517 -7 q 507 -14 510 -12 q 503 -17 503 -18 q 500 -21 500 -21 q 496 -26 497 -24 q 495 -28 496 -28 q 494 -29 494 -28 q 492 -31 492 -29 q 490 -35 490 -33 q 488 -40 489 -36 q 486 -42 488 -42 q 483 -46 485 -43 l 483 -47 q 481 -52 482 -50 q 479 -57 479 -54 l 479 -87 l 479 -92 l 479 -122 q 482 -150 482 -139 q 476 -167 482 -161 q 473 -170 475 -169 q 469 -174 471 -171 l 467 -174 l 465 -174 l 460 -174 q 456 -170 458 -171 q 451 -167 454 -169 q 446 -111 443 -158 q 447 -100 447 -104 q 447 -92 447 -96 l 447 -40 q 443 -33 444 -35 q 437 -27 440 -31 q 431 -24 433 -24 q 418 -24 422 -19 q 413 -26 415 -24 q 407 -29 410 -28 q 401 -32 404 -31 q 394 -33 399 -33 l 390 -33 q 383 -29 389 -31 l 364 -50 l 360 -54 q 351 -64 354 -60 q 349 -85 350 -67 q 348 -128 349 -104 q 347 -174 347 -151 q 347 -208 347 -197 l 347 -212 l 347 -243 q 350 -272 350 -261 q 344 -289 350 -282 q 336 -293 340 -293 l 333 -294 l 332 -294 l 326 -293 q 319 -289 324 -293 q 313 -268 314 -282 q 314 -233 313 -254 q 315 -222 315 -226 q 315 -212 315 -218 q 315 -184 315 -206 q 315 -138 315 -162 q 315 -94 315 -114 q 314 -69 314 -74 q 312 -56 313 -62 q 311 -46 311 -50 l 310 -46 q 308 -43 308 -46 q 307 -42 308 -43 q 300 -37 301 -42 q 291 -35 296 -37 q 281 -35 286 -33 l 275 -35 q 274 -36 274 -35 l 274 -37 q 265 -34 268 -37 q 258 -29 261 -31 q 257 -28 258 -28 l 257 -26 q 256 -24 257 -25 q 250 -19 251 -19 l 250 -17 l 249 -17 q 244 -15 246 -15 q 239 -14 243 -14 q 233 -12 238 -12 q 219 -7 225 -7 q 211 -12 217 -7 q 208 -14 210 -12 l 207 -14 q 206 -15 206 -14 l 201 -15 q 198 -17 200 -17 q 196 -19 196 -17 l 194 -19 l 193 -19 q 192 -21 193 -21 q 192 -24 192 -21 l 189 -24 q 188 -29 188 -26 q 189 -35 189 -32 q 192 -46 193 -43 q 188 -49 190 -46 l 186 -50 q 181 -49 182 -51 q 176 -46 179 -47 q 175 -43 176 -44 l 174 -43 q 176 -35 174 -39 q 179 -29 179 -32 l 176 -28 q 174 -26 176 -28 q 170 -22 172 -22 q 167 -24 168 -21 l 164 -24 q 161 -28 165 -24 q 156 -31 158 -28 q 154 -40 154 -36 q 151 -50 154 -44 q 153 -65 151 -58 q 156 -79 154 -72 q 158 -86 157 -82 q 157 -94 160 -90 q 149 -98 154 -97 q 142 -96 144 -99 q 139 -89 139 -94 q 142 -83 139 -85 q 142 -79 142 -82 q 143 -74 143 -76 q 144 -64 144 -69 q 143 -51 143 -58 q 139 -31 143 -42 q 136 -24 139 -32 q 131 -17 132 -19 l 115 -17 q 113 -16 113 -17 q 111 -15 113 -15 q 103 -10 106 -15 q 98 6 99 -3 q 94 22 97 14 q 89 28 92 26 q 87 27 88 28 q 85 26 86 26 q 81 24 82 25 q 76 22 81 22 q 74 24 75 22 q 69 25 72 25 q 58 36 61 28 q 48 40 54 40 q 40 49 42 39 q 39 56 40 53 q 38 63 38 60 l 36 63 l 36 83 l 36 108 l 1036 108 z "},"K":{"ha":1490,"x_min":6,"x_max":1532,"o":"m 1114 622 q 1067 610 1108 613 q 970 608 1026 607 q 853 611 914 608 q 749 617 792 614 q 875 581 800 600 q 1033 541 950 561 q 1199 501 1117 521 q 1348 467 1282 482 q 1455 443 1414 453 q 1496 432 1496 433 l 1496 43 q 1454 41 1496 42 q 1350 40 1413 40 q 1214 40 1288 40 q 1078 40 1140 40 q 974 41 1015 40 q 932 43 932 42 l 932 346 q 933 389 932 372 q 929 416 933 406 q 913 433 925 426 q 872 446 900 439 q 821 457 860 449 q 735 476 782 465 q 644 496 689 486 q 576 511 600 506 q 574 275 575 393 q 571 39 574 157 q 529 37 571 38 q 424 35 488 36 q 288 35 361 35 q 152 37 215 36 q 47 38 89 38 q 6 39 6 39 q 13 684 11 364 q 32 1329 15 1004 q 74 1333 32 1332 q 178 1334 115 1335 q 313 1332 240 1333 q 449 1330 386 1331 q 553 1328 511 1329 q 594 1329 594 1328 q 583 1002 586 1165 q 576 675 579 839 q 772 1052 675 865 q 968 1429 868 1239 l 1532 1429 q 1323 1026 1428 1226 q 1114 622 1218 825 m 178 40 q 156 31 167 36 q 133 18 144 25 q 110 3 121 11 q 83 -51 86 -14 q 83 -150 81 -89 q 88 -208 83 -182 q 92 -254 92 -235 q 87 -285 93 -274 q 60 -296 81 -296 l 57 -296 l 54 -296 q 28 -281 33 -296 q 23 -242 22 -265 q 28 -194 24 -219 q 35 -150 33 -169 q 36 -74 38 -110 q 26 -17 35 -39 q 10 21 15 1 q 6 40 7 31 l 11 40 l 169 40 l 178 40 m 276 38 q 258 22 268 31 q 240 6 250 15 q 221 -17 231 -4 q 201 -99 204 -44 q 201 -247 199 -154 q 204 -333 201 -293 q 208 -401 207 -372 q 203 -448 208 -431 q 183 -465 199 -465 q 178 -462 181 -465 l 178 -465 q 157 -442 161 -465 q 153 -384 153 -418 q 158 -312 154 -350 q 161 -247 161 -275 q 163 -134 164 -189 q 156 -49 163 -79 q 147 -17 150 -33 q 142 11 144 -1 q 138 38 139 26 l 143 38 l 269 38 l 276 38 m 524 38 q 506 35 514 36 q 489 33 499 33 q 471 29 479 32 q 451 16 454 25 q 451 -8 449 7 q 455 -40 453 -17 q 457 -88 457 -64 q 451 -131 457 -112 q 431 -150 446 -150 l 428 -150 l 425 -150 q 406 -130 410 -150 q 404 -85 403 -110 q 410 -37 406 -60 q 414 -8 414 -14 q 415 9 417 0 q 406 24 414 18 q 400 28 403 26 q 394 33 397 31 l 390 38 l 397 38 l 524 38 m 1310 35 q 1279 -7 1294 19 q 1258 -91 1261 -35 q 1258 -244 1256 -147 q 1261 -333 1258 -292 q 1264 -403 1264 -374 q 1260 -451 1264 -433 q 1242 -468 1256 -468 l 1238 -468 l 1235 -468 q 1217 -444 1221 -468 q 1214 -385 1213 -419 q 1218 -312 1215 -351 q 1221 -244 1221 -274 q 1220 -128 1221 -186 q 1214 -37 1219 -69 q 1208 -6 1210 -22 q 1203 22 1206 10 q 1200 51 1200 38 l 1204 51 l 1324 51 l 1326 51 l 1310 35 m 1153 40 q 1142 39 1147 40 q 1131 36 1136 38 q 1119 33 1125 35 q 1107 23 1108 31 q 1106 4 1106 15 q 1108 -19 1106 -1 q 1110 -54 1110 -36 q 1106 -87 1110 -72 q 1093 -101 1103 -101 l 1092 -101 l 1090 -101 l 1089 -101 q 1077 -86 1079 -101 q 1076 -52 1075 -71 q 1079 -17 1076 -33 q 1082 4 1082 0 q 1083 19 1083 11 q 1078 31 1082 26 q 1074 34 1075 32 q 1071 38 1072 36 l 1068 40 l 1071 40 l 1072 40 l 1149 40 l 1153 40 m 1081 43 q 1063 40 1072 42 q 1044 37 1054 39 q 1024 32 1033 35 q 1000 14 1003 25 q 1000 -17 997 3 q 1003 -55 1000 -26 q 1005 -113 1006 -83 q 998 -167 1004 -143 q 975 -190 992 -190 l 974 -190 l 972 -190 l 968 -190 q 947 -165 951 -190 q 945 -110 943 -140 q 952 -51 947 -79 q 957 -17 957 -24 q 957 6 958 -6 q 949 25 956 18 q 936 38 940 31 q 932 43 933 40 l 938 43 l 1081 43 z "},"L":{"ha":1182,"x_min":31,"x_max":1338,"o":"m 782 453 q 823 458 782 457 q 926 459 864 460 q 1059 456 988 458 q 1192 453 1131 454 q 1295 451 1254 451 q 1338 453 1336 450 q 1267 281 1306 357 q 1172 149 1228 204 q 1040 63 1115 93 q 860 28 964 32 q 450 22 654 21 q 40 32 246 24 q 35 33 38 32 q 31 33 33 33 q 38 699 31 368 q 46 1365 44 1031 q 88 1367 46 1367 q 191 1369 129 1368 q 324 1369 253 1369 q 458 1369 396 1369 q 560 1367 519 1368 q 601 1365 601 1367 q 596 796 601 1079 q 588 226 590 513 q 640 226 615 226 q 683 225 665 226 q 763 307 744 251 q 782 453 782 363 m 204 33 q 182 22 193 28 q 160 10 172 17 q 136 -4 147 4 q 110 -59 113 -22 q 108 -158 107 -96 q 113 -216 108 -189 q 118 -262 117 -243 q 113 -294 119 -282 q 88 -306 107 -306 l 86 -306 l 83 -306 l 79 -306 q 54 -290 60 -306 q 49 -251 49 -274 q 55 -203 50 -228 q 60 -158 60 -178 q 60 -83 61 -119 q 50 -24 58 -46 q 36 15 40 -3 q 31 33 32 25 l 36 33 l 39 33 l 197 33 l 204 33 m 403 32 q 381 18 393 26 q 357 1 369 11 q 333 -22 344 -10 q 307 -101 310 -47 q 307 -246 304 -154 q 311 -329 307 -290 q 316 -397 315 -368 q 310 -443 317 -426 q 285 -460 304 -460 q 281 -458 282 -460 q 278 -460 279 -458 q 252 -437 258 -460 q 247 -381 246 -414 q 253 -310 249 -347 q 258 -246 257 -274 q 258 -135 260 -189 q 249 -50 257 -81 q 240 -20 243 -35 q 235 6 238 -6 q 229 32 232 19 l 236 32 l 396 32 l 403 32 m 518 32 q 507 22 513 28 q 486 -3 496 14 q 474 -52 475 -18 q 475 -144 474 -86 q 477 -198 475 -174 q 479 -241 479 -222 q 476 -270 479 -260 q 465 -281 474 -281 l 464 -281 l 463 -281 l 461 -281 q 450 -266 453 -281 q 448 -231 447 -251 q 451 -186 449 -210 q 453 -144 453 -162 q 452 -74 453 -108 q 449 -21 451 -40 q 442 15 443 1 q 440 32 440 24 l 443 32 l 514 32 l 517 32 l 518 32 m 944 49 q 928 42 936 46 q 896 22 914 36 q 876 -17 878 10 q 875 -87 875 -43 q 878 -129 875 -110 q 883 -162 882 -149 q 878 -185 883 -176 q 860 -193 874 -193 l 857 -193 l 856 -193 q 836 -182 840 -193 q 833 -154 832 -171 q 837 -119 833 -137 q 840 -87 840 -101 q 841 -33 842 -60 q 833 8 840 -7 q 828 22 831 15 q 824 36 826 29 q 819 49 821 42 l 825 49 l 939 49 l 944 49 z "},"M":{"ha":1665,"x_min":-8,"x_max":1689,"o":"m 1326 1349 q 1459 1351 1394 1350 q 1575 1351 1524 1351 q 1658 1351 1626 1351 q 1689 1350 1689 1350 q 1689 999 1689 1185 q 1689 626 1689 814 q 1689 253 1689 438 q 1689 -97 1689 68 q 1649 -100 1689 -99 q 1549 -102 1608 -101 q 1418 -102 1489 -103 q 1288 -101 1347 -101 q 1188 -99 1228 -100 q 1147 -97 1147 -99 q 1145 51 1147 -33 q 1141 224 1143 136 q 1137 397 1139 313 q 1136 547 1135 482 q 1117 453 1126 511 q 1097 331 1107 394 q 1078 210 1088 268 q 1058 115 1068 151 q 1027 111 1057 113 q 952 109 997 110 q 855 108 907 108 q 758 108 803 107 q 683 110 713 108 q 651 115 653 113 q 627 212 639 153 q 603 335 615 271 q 578 459 590 400 q 553 556 565 518 q 542 298 546 426 q 535 39 538 169 q 494 35 535 36 q 394 35 454 35 q 263 35 333 35 q 133 37 193 36 q 32 38 72 38 q -8 39 -8 39 q 17 694 1 368 q 40 1350 33 1021 q 89 1354 40 1353 q 211 1356 138 1356 q 371 1357 285 1357 q 531 1356 457 1357 q 654 1351 604 1354 q 706 1343 704 1349 q 773 1133 739 1238 q 839 922 807 1028 q 902 1133 871 1029 q 965 1343 933 1238 l 1326 1349 m 1665 -97 l 1667 -97 q 1644 -107 1656 -101 q 1599 -133 1624 -115 q 1572 -187 1575 -151 q 1569 -285 1568 -224 q 1576 -342 1571 -315 q 1581 -388 1581 -368 q 1576 -419 1582 -408 q 1550 -431 1569 -431 l 1547 -431 l 1542 -431 q 1516 -415 1522 -431 q 1511 -377 1510 -400 q 1517 -329 1513 -354 q 1524 -285 1522 -304 q 1524 -210 1525 -246 q 1513 -153 1522 -175 q 1505 -133 1508 -143 q 1499 -115 1501 -124 q 1493 -97 1494 -106 l 1500 -97 l 1501 -97 l 1658 -97 l 1665 -97 m 1375 -100 q 1368 -101 1372 -100 q 1356 -104 1360 -104 q 1347 -112 1349 -107 q 1346 -124 1346 -117 q 1347 -137 1346 -126 q 1349 -158 1349 -147 q 1346 -178 1349 -169 q 1338 -187 1343 -187 l 1336 -187 q 1329 -178 1331 -187 q 1328 -158 1328 -169 q 1330 -136 1328 -146 q 1332 -124 1332 -126 q 1333 -115 1333 -119 q 1329 -107 1332 -110 q 1326 -105 1326 -106 q 1325 -103 1326 -104 q 1324 -100 1324 -101 l 1325 -100 l 1374 -100 l 1375 -100 m 1247 -97 q 1235 -100 1240 -99 q 1222 -103 1229 -101 q 1208 -106 1215 -104 q 1193 -119 1194 -110 q 1193 -143 1192 -128 q 1194 -172 1193 -150 q 1196 -215 1196 -193 q 1192 -255 1196 -237 q 1175 -272 1188 -272 l 1174 -272 l 1171 -272 q 1157 -253 1160 -272 q 1156 -212 1154 -235 q 1160 -168 1157 -189 q 1164 -143 1164 -147 q 1165 -124 1165 -133 q 1158 -110 1164 -115 q 1150 -101 1151 -106 q 1147 -97 1149 -99 l 1151 -97 l 1247 -97 m 393 40 q 376 33 385 38 q 342 13 360 26 q 322 -28 324 -1 q 321 -103 319 -56 q 324 -146 321 -126 q 328 -181 328 -165 q 324 -204 329 -196 q 306 -212 319 -212 l 303 -212 l 299 -212 q 279 -201 283 -212 q 276 -172 275 -189 q 281 -137 278 -156 q 283 -103 283 -118 q 284 -46 285 -74 q 278 -3 283 -18 q 272 13 274 6 q 267 26 269 19 q 263 40 264 33 l 267 40 l 268 40 l 388 40 l 393 40 m 467 39 l 468 39 q 454 28 461 33 q 426 -3 443 18 q 410 -64 411 -22 q 410 -175 408 -106 q 413 -240 410 -210 q 415 -292 415 -269 q 412 -327 415 -314 q 397 -340 408 -340 l 394 -340 l 393 -340 q 377 -322 381 -340 q 374 -278 374 -304 q 378 -224 375 -253 q 381 -175 381 -196 q 381 -90 382 -131 q 375 -25 381 -49 q 370 -2 372 -14 q 367 19 368 10 q 364 39 365 31 l 368 39 l 463 39 l 467 39 m 82 39 q 71 36 76 38 q 60 33 65 35 q 47 31 54 32 q 33 19 35 26 q 32 -1 32 11 q 34 -26 32 -8 q 36 -64 36 -44 q 32 -99 36 -83 q 17 -114 28 -114 l 15 -114 l 14 -114 q 1 -98 4 -114 q 0 -62 -1 -82 q 4 -24 1 -42 q 7 -1 7 -6 q 8 14 8 6 q 1 26 7 22 q -6 35 -4 32 q -8 39 -7 38 l -4 39 l 79 39 l 82 39 z "},"N":{"ha":1353,"x_min":-7,"x_max":1442,"o":"m 1442 1425 q 1406 1074 1421 1250 q 1377 722 1392 897 q 1346 370 1363 546 q 1304 21 1329 194 l 769 21 q 654 210 713 117 q 535 397 596 303 q 537 215 536 306 q 539 32 538 124 q 499 31 539 32 q 400 29 460 29 q 272 28 340 29 q 143 28 203 28 q 44 30 83 29 q 4 32 4 31 q -3 683 1 358 q 4 1335 -7 1007 l 539 1335 q 681 1038 604 1182 q 844 753 757 893 q 872 1089 858 921 q 906 1425 886 1257 l 1442 1425 m 218 31 l 219 31 q 210 28 215 29 q 201 25 206 26 q 190 22 196 24 q 178 10 179 18 q 179 -12 178 1 q 181 -39 179 -19 q 182 -79 182 -58 q 179 -117 182 -100 q 168 -133 176 -133 l 167 -133 l 165 -133 l 164 -133 q 154 -116 156 -133 q 153 -77 153 -99 q 157 -36 154 -56 q 160 -12 160 -17 q 159 4 160 -4 q 156 17 158 13 q 149 25 150 22 q 147 31 147 28 l 149 31 l 150 31 l 217 31 l 218 31 m 153 32 q 135 29 144 31 q 96 22 117 26 q 72 5 74 15 q 69 -25 69 -6 q 74 -60 71 -33 q 76 -116 76 -87 q 70 -167 76 -144 q 46 -189 64 -189 l 43 -189 l 40 -189 q 19 -165 24 -189 q 16 -112 14 -142 q 23 -57 18 -83 q 29 -25 28 -31 q 29 -3 31 -14 q 21 15 28 8 q 8 26 15 19 q 4 32 6 29 l 8 32 l 10 32 l 153 32 m 1099 32 l 1100 32 q 1082 22 1090 28 q 1047 -3 1064 13 q 1028 -56 1029 -21 q 1026 -154 1026 -92 q 1031 -211 1028 -185 q 1035 -257 1035 -237 q 1031 -287 1036 -276 q 1013 -299 1026 -299 l 1010 -299 l 1006 -299 q 986 -283 990 -299 q 983 -246 982 -268 q 988 -199 985 -224 q 992 -154 992 -174 q 992 -81 993 -118 q 985 -24 992 -43 q 978 -3 981 -12 q 974 14 976 6 q 969 32 971 22 l 975 32 l 1094 32 l 1099 32 m 1172 31 l 1174 31 q 1160 15 1167 24 q 1132 -25 1146 0 q 1115 -103 1117 -49 q 1117 -250 1114 -158 q 1119 -335 1117 -296 q 1122 -403 1121 -375 q 1119 -449 1122 -432 q 1104 -465 1115 -465 l 1103 -465 l 1101 -465 l 1100 -465 q 1084 -442 1088 -465 q 1081 -385 1081 -418 q 1085 -315 1082 -351 q 1089 -250 1089 -278 q 1088 -137 1089 -192 q 1081 -51 1088 -83 q 1076 -22 1078 -37 q 1072 4 1074 -7 q 1069 31 1071 18 l 1074 31 l 1169 31 l 1172 31 m 897 35 q 890 26 894 32 q 876 3 882 15 q 869 -42 869 -12 q 868 -126 868 -72 q 872 -215 869 -179 q 863 -250 874 -250 q 861 -249 861 -250 q 860 -249 861 -249 l 860 -250 q 852 -237 854 -250 q 851 -204 850 -224 q 853 -164 851 -185 q 854 -126 854 -143 q 854 -62 854 -93 q 851 -14 854 -31 q 848 3 849 -6 q 846 19 847 13 q 844 35 844 28 l 847 35 l 896 35 l 897 35 z "},"O":{"ha":1257,"x_min":-15,"x_max":1251,"o":"m 742 1349 q 891 1333 810 1349 q 1044 1287 972 1317 q 1167 1213 1117 1257 q 1225 1111 1218 1169 q 1248 799 1244 957 q 1232 489 1251 642 q 1215 369 1225 436 q 1183 238 1204 303 q 1125 121 1161 174 q 1031 44 1089 68 q 958 30 1008 36 q 843 20 908 24 q 704 16 778 17 q 562 16 631 15 q 436 20 493 17 q 347 28 379 24 q 178 94 246 43 q 70 222 111 146 q 10 390 29 297 q -12 577 -8 482 q -9 765 -15 672 q 7 932 -3 857 q 35 1042 14 989 q 90 1141 57 1094 q 167 1225 124 1188 q 263 1288 211 1263 q 374 1328 315 1314 q 493 1347 432 1342 q 617 1352 554 1353 q 742 1349 679 1351 m 622 208 q 672 365 654 283 q 696 530 689 446 q 702 698 703 614 q 699 860 701 782 q 692 1016 696 932 q 663 1172 688 1100 q 589 1062 618 1121 q 551 932 560 1003 q 533 754 540 849 q 528 564 525 660 q 553 376 532 468 q 622 208 574 285 m 747 51 q 725 40 736 46 q 703 28 715 35 q 679 14 690 22 q 653 -41 656 -4 q 651 -140 650 -78 q 656 -198 651 -171 q 661 -244 660 -225 q 656 -276 663 -264 q 631 -287 650 -287 l 629 -287 l 626 -287 l 622 -287 q 597 -272 603 -287 q 592 -233 592 -256 q 598 -185 593 -210 q 603 -140 603 -160 q 603 -65 604 -101 q 593 -6 601 -28 q 579 33 583 15 q 574 51 575 43 l 579 51 l 582 51 l 740 51 l 747 51 m 547 49 q 529 33 538 42 q 493 -7 513 18 q 472 -88 474 -33 q 471 -236 469 -143 q 474 -322 471 -282 q 478 -392 478 -362 q 474 -440 479 -422 q 454 -457 469 -457 l 453 -457 q 450 -456 451 -457 q 449 -457 449 -456 q 427 -433 432 -457 q 424 -376 422 -410 q 428 -303 425 -342 q 432 -236 432 -265 q 432 -123 433 -178 q 424 -36 431 -68 q 418 -6 421 -21 q 413 21 415 8 q 408 49 410 36 l 414 49 l 542 49 l 547 49 m 526 35 q 500 32 514 33 q 474 29 489 31 q 444 26 458 28 q 413 12 417 21 q 411 -14 408 3 q 413 -34 411 -22 q 413 -58 414 -46 q 408 -79 413 -69 q 390 -90 403 -89 q 390 -91 389 -90 q 392 -92 390 -92 l 393 -92 q 390 -90 392 -92 q 388 -91 388 -90 q 385 -92 388 -92 q 352 -81 361 -92 q 343 -58 343 -71 q 347 -31 343 -44 q 351 -14 350 -18 q 353 6 354 -4 q 340 21 351 15 q 329 26 333 24 q 322 31 325 28 q 315 35 318 33 l 325 35 l 518 35 l 526 35 m 946 50 q 924 36 936 44 q 900 19 913 29 q 876 -4 888 8 q 850 -83 853 -29 q 850 -228 847 -136 q 854 -311 850 -272 q 859 -379 858 -350 q 853 -425 860 -408 q 828 -442 847 -442 q 824 -440 825 -442 q 821 -442 822 -440 q 795 -419 801 -442 q 790 -362 789 -396 q 796 -292 792 -329 q 801 -228 800 -256 q 801 -117 803 -171 q 792 -32 800 -62 q 783 -2 786 -17 q 778 24 781 13 q 772 50 775 38 l 779 50 l 939 50 l 946 50 m 1061 50 q 1050 40 1056 46 q 1029 15 1039 32 q 1017 -34 1018 0 q 1018 -126 1017 -68 q 1020 -180 1018 -156 q 1022 -223 1022 -204 q 1019 -252 1022 -242 q 1008 -262 1017 -262 l 1007 -262 l 1006 -262 l 1004 -262 q 993 -248 996 -262 q 991 -212 990 -233 q 994 -168 992 -192 q 996 -126 996 -144 q 995 -56 996 -90 q 992 -3 994 -22 q 985 33 986 19 q 983 50 983 42 l 986 50 l 1057 50 l 1060 50 l 1061 50 z "},"P":{"ha":1289,"x_min":-11,"x_max":1292,"o":"m -11 29 q -10 102 -11 47 q -8 237 -10 157 q -3 415 -6 317 q 3 620 0 514 q 10 835 7 726 q 18 1041 14 943 q 26 1222 22 1139 q 33 1361 31 1306 q 75 1366 33 1365 q 178 1366 117 1367 q 312 1364 240 1365 q 445 1361 383 1363 q 548 1360 507 1360 q 589 1361 589 1360 l 589 1349 q 641 1347 608 1347 q 713 1344 674 1346 q 790 1340 751 1342 q 861 1338 829 1339 q 913 1335 893 1336 q 931 1333 932 1333 q 1082 1290 1014 1325 q 1200 1163 1150 1254 q 1253 1028 1232 1103 q 1283 873 1275 954 q 1287 708 1292 792 q 1261 548 1282 625 q 1202 404 1240 471 q 1108 290 1164 338 q 985 228 1056 246 q 839 208 915 211 q 686 209 763 204 q 543 217 610 214 q 542 123 542 169 q 544 29 543 76 l 267 26 q 165 26 214 26 q 76 26 115 25 q 13 27 36 26 q -11 29 -11 28 m 589 811 q 564 633 574 721 q 548 475 554 558 q 544 326 542 392 q 549 308 544 314 q 556 302 551 303 q 569 313 561 301 q 640 406 611 353 q 688 517 669 458 q 717 636 707 575 q 728 756 726 697 q 726 837 729 793 q 717 926 724 881 q 700 1019 711 972 q 672 1108 689 1065 q 619 958 639 1036 q 589 811 600 881 m -11 29 q 30 27 -11 28 q 133 26 71 26 q 266 25 194 25 q 399 26 338 25 q 502 27 461 26 q 543 29 543 28 l -11 29 m 157 29 q 136 19 147 25 q 92 -7 115 10 q 65 -61 68 -25 q 65 -160 63 -97 q 69 -217 65 -190 q 74 -263 74 -243 q 69 -294 75 -283 q 44 -306 64 -306 l 43 -306 l 40 -306 l 36 -306 q 11 -290 17 -306 q 7 -251 6 -274 q 13 -203 8 -228 q 17 -160 17 -178 q 18 -84 19 -121 q 10 -26 17 -47 q 1 -6 4 -15 q -6 11 -3 3 q -11 29 -10 19 l -3 29 l 149 29 l 157 29 m 253 26 q 236 13 244 21 q 219 -5 229 6 q 201 -29 210 -15 q 181 -108 182 -54 q 181 -254 179 -162 q 183 -340 181 -300 q 187 -410 186 -381 q 183 -456 188 -439 q 164 -472 178 -472 l 163 -472 l 160 -472 l 157 -472 q 138 -449 142 -472 q 135 -392 133 -425 q 140 -321 136 -358 q 144 -254 143 -283 q 144 -142 144 -197 q 136 -57 143 -87 q 130 -26 132 -42 q 125 0 128 -11 q 121 26 122 14 l 125 26 l 126 26 l 247 26 l 253 26 m 493 29 q 478 26 485 28 q 463 24 471 25 q 444 21 454 22 q 425 6 428 15 q 424 -18 422 -3 q 427 -49 425 -26 q 428 -95 429 -71 q 422 -138 428 -119 q 403 -157 417 -157 l 400 -157 l 399 -157 q 380 -137 383 -157 q 378 -93 376 -118 q 383 -46 379 -68 q 388 -18 388 -24 q 389 0 390 -10 q 381 14 388 10 q 371 24 374 18 q 368 29 368 26 l 372 29 l 493 29 z "},"Q":{"ha":1283,"x_min":-51,"x_max":1393,"o":"m 869 1361 q 917 1357 883 1361 q 993 1344 950 1353 q 1085 1321 1036 1335 q 1176 1288 1133 1307 q 1253 1244 1219 1269 q 1303 1188 1288 1218 q 1380 904 1367 1053 q 1361 608 1393 756 q 1295 396 1338 504 q 1183 200 1253 288 q 1228 163 1208 179 q 1264 133 1249 146 q 1296 108 1281 118 q 1234 33 1265 69 q 1172 -42 1203 -4 q 1131 -10 1172 -43 q 1026 71 1089 22 q 921 41 989 53 q 772 24 853 29 q 603 18 690 18 q 441 23 517 18 q 308 36 365 28 q 231 57 251 44 q 122 149 168 93 q 49 272 76 206 q -8 431 15 347 q -42 601 -32 515 q -44 772 -51 686 q -6 935 -36 857 q 121 1133 43 1039 q 297 1289 199 1228 q 431 1344 361 1328 q 574 1365 501 1361 q 722 1365 647 1369 q 869 1361 796 1361 m 704 326 q 653 369 676 350 q 613 401 629 388 q 576 431 593 417 q 638 506 607 469 q 699 581 668 543 q 722 565 700 582 q 781 519 744 547 q 814 688 803 606 q 820 806 819 740 q 814 941 821 872 q 790 1076 807 1010 q 742 1199 772 1143 q 633 1072 681 1140 q 554 935 586 1003 q 519 774 528 867 q 518 583 510 682 q 555 385 526 483 q 632 210 583 288 q 670 266 651 238 q 704 326 689 294 m 332 31 q 594 28 463 24 q 857 31 726 32 l 332 31 m 879 32 q 861 17 869 25 q 844 0 854 10 q 826 -22 835 -10 q 805 -102 807 -49 q 804 -246 803 -156 q 808 -331 804 -292 q 812 -399 811 -369 q 808 -444 813 -428 q 788 -461 803 -461 q 783 -460 785 -461 q 782 -461 783 -460 q 762 -438 767 -461 q 758 -382 757 -415 q 763 -311 760 -349 q 767 -246 767 -274 q 767 -135 768 -189 q 760 -51 767 -82 q 753 -21 756 -36 q 747 6 750 -6 q 743 32 744 19 l 749 32 l 750 32 l 874 32 l 879 32 m 1207 -1 q 1197 -10 1203 -4 q 1188 -21 1193 -14 q 1178 -35 1182 -28 q 1165 -84 1167 -51 q 1165 -174 1164 -117 q 1167 -226 1165 -201 q 1169 -268 1169 -250 q 1167 -297 1169 -286 q 1156 -307 1164 -307 l 1154 -306 q 1153 -307 1154 -307 q 1142 -292 1144 -307 q 1140 -257 1139 -278 q 1142 -213 1140 -236 q 1144 -174 1144 -190 q 1145 -105 1146 -137 q 1140 -53 1144 -72 q 1136 -34 1138 -43 q 1133 -18 1135 -25 q 1132 -1 1132 -10 l 1135 -1 l 1204 -1 l 1207 -1 m 481 36 l 482 36 q 464 28 474 33 q 445 18 456 24 q 425 6 435 13 q 403 -40 406 -10 q 401 -122 400 -71 q 405 -169 401 -147 q 409 -208 408 -192 q 405 -235 410 -225 q 383 -244 400 -244 l 381 -244 l 378 -244 q 356 -231 361 -244 q 352 -199 351 -218 q 357 -159 353 -181 q 361 -122 361 -137 q 361 -60 363 -90 q 353 -11 360 -29 q 340 21 344 4 q 336 36 338 28 l 343 36 l 475 36 l 481 36 m 382 51 q 365 49 374 50 q 348 47 358 47 q 328 43 338 46 q 306 31 308 39 q 306 11 304 24 q 308 -15 306 4 q 311 -53 311 -33 q 306 -90 311 -74 q 283 -106 300 -106 l 282 -106 l 281 -106 l 276 -106 q 256 -89 260 -106 q 255 -51 253 -72 q 261 -12 257 -31 q 267 11 265 7 q 267 26 268 18 q 258 39 265 35 q 246 47 250 43 l 242 51 l 247 51 l 249 51 l 382 51 z "},"R":{"ha":1378,"x_min":15,"x_max":1511,"o":"m 1117 329 q 1315 165 1217 247 q 1511 -1 1413 83 l 1139 -4 q 1002 -5 1069 -4 q 881 -5 935 -6 q 794 -3 828 -4 q 760 -1 761 -3 q 657 87 708 43 q 553 175 606 131 q 553 116 553 144 q 554 57 553 88 q 286 54 403 56 q 188 53 236 54 q 101 53 139 53 q 41 55 64 54 q 18 57 18 56 q 15 201 15 131 q 17 346 15 272 l 17 347 q 19 417 17 358 q 24 563 21 475 q 33 757 28 650 q 42 972 38 864 q 52 1180 47 1081 q 61 1353 57 1279 q 101 1358 61 1357 q 200 1358 140 1358 q 329 1356 260 1357 q 458 1353 399 1354 q 558 1351 518 1351 q 597 1353 597 1351 q 597 1347 597 1350 q 596 1340 596 1343 q 679 1338 624 1340 q 791 1333 735 1335 q 888 1328 847 1331 q 928 1325 929 1325 q 1003 1311 967 1321 q 1073 1283 1040 1301 q 1134 1234 1106 1264 q 1188 1160 1163 1204 q 1238 1034 1218 1104 q 1267 888 1258 964 q 1271 733 1275 811 q 1249 581 1267 654 q 1198 442 1231 507 q 1117 329 1165 378 m 731 764 q 722 931 733 839 q 678 1107 710 1022 q 626 961 646 1036 q 596 817 607 886 q 572 632 581 725 q 558 444 564 539 q 556 396 558 421 q 554 347 554 371 l 554 344 q 572 336 561 342 l 579 336 q 646 426 618 375 q 692 533 674 476 q 720 648 711 589 q 731 764 729 707 m 554 57 q 535 49 544 54 q 496 25 517 39 q 474 -21 476 10 q 474 -104 472 -51 q 477 -153 474 -131 q 481 -192 481 -175 q 477 -218 482 -208 q 456 -228 472 -228 l 454 -228 l 451 -228 l 449 -228 q 427 -215 432 -228 q 423 -182 422 -201 q 428 -141 424 -162 q 432 -104 432 -119 q 432 -41 433 -72 q 424 10 431 -10 q 418 26 421 18 q 413 42 415 35 q 408 57 410 49 l 413 57 l 415 57 l 547 57 l 554 57 m 376 56 q 358 40 367 49 q 322 0 342 25 q 301 -81 303 -26 q 300 -229 299 -136 q 303 -315 300 -275 q 308 -385 307 -356 q 303 -433 308 -415 q 283 -450 299 -450 l 282 -450 q 279 -449 281 -450 q 278 -450 278 -449 q 256 -426 261 -450 q 253 -369 251 -403 q 258 -297 254 -335 q 261 -229 261 -258 q 261 -116 263 -171 q 253 -29 260 -61 q 247 1 250 -14 q 242 28 244 15 q 238 56 239 43 l 243 56 l 371 56 l 376 56 m 253 63 q 226 60 240 61 q 200 57 215 58 q 171 54 185 56 q 139 40 143 49 q 138 14 135 31 q 139 -6 138 6 q 140 -30 140 -18 q 134 -51 139 -42 q 117 -62 129 -61 q 116 -63 115 -62 q 118 -64 117 -64 l 119 -64 q 117 -62 118 -64 q 114 -63 114 -62 q 111 -64 114 -64 q 78 -53 88 -64 q 69 -30 69 -43 q 73 -3 69 -17 q 78 14 76 10 q 79 33 81 24 q 67 49 78 43 q 56 53 60 51 q 49 58 51 56 q 42 63 44 61 l 51 63 l 244 63 l 253 63 m 1081 0 q 1058 -14 1071 -6 q 1035 -31 1047 -21 q 1011 -54 1022 -42 q 985 -133 988 -79 q 985 -278 982 -186 q 989 -361 985 -322 q 994 -429 993 -400 q 988 -475 994 -458 q 963 -492 982 -492 q 958 -490 960 -492 q 956 -492 957 -490 q 930 -469 936 -492 q 925 -412 924 -446 q 931 -342 926 -379 q 936 -278 935 -306 q 936 -167 938 -221 q 926 -82 935 -112 q 918 -52 921 -67 q 913 -26 915 -37 q 907 0 910 -12 l 914 0 l 1074 0 l 1081 0 m 839 1 q 828 -8 833 -3 q 807 -33 817 -17 q 795 -83 796 -49 q 796 -175 794 -117 q 798 -228 796 -204 q 800 -272 800 -253 q 797 -301 800 -290 q 786 -311 794 -311 l 785 -311 l 783 -311 l 782 -311 q 771 -297 774 -311 q 769 -261 768 -282 q 772 -217 769 -240 q 774 -175 774 -193 q 773 -105 774 -139 q 769 -51 772 -71 q 763 -15 764 -29 q 761 1 761 -7 l 764 1 l 835 1 l 838 1 l 839 1 z "},"S":{"ha":1169,"x_min":-150,"x_max":1171,"o":"m 925 718 q 1006 715 964 718 q 1084 700 1049 713 q 1142 660 1119 688 q 1165 582 1165 633 q 1168 466 1165 526 q 1165 347 1171 406 q 1140 235 1160 289 q 1078 142 1121 182 q 942 58 1013 81 q 793 32 871 36 l 792 32 q 751 31 783 32 q 674 30 719 31 q 575 28 629 29 q 467 28 521 28 q 364 29 413 29 q 282 31 315 29 q 200 44 242 33 q 125 79 158 54 q 43 190 67 124 q 17 331 19 257 l -150 339 l -144 596 l 601 554 l 596 299 l 544 301 q 581 171 550 231 q 611 219 597 194 q 626 272 619 238 q 638 348 633 307 q 647 433 643 389 q 650 517 650 478 q 647 583 650 556 q 636 621 643 611 q 582 639 628 631 q 471 654 536 647 q 331 666 406 661 q 190 676 256 671 q 76 684 124 681 q 15 692 28 688 q -55 753 -32 708 q -85 856 -78 799 q -91 972 -93 913 q -87 1078 -89 1032 q -66 1166 -85 1128 q -16 1231 -47 1204 q 56 1272 15 1257 q 140 1293 96 1288 q 370 1310 254 1308 q 603 1310 486 1313 q 623 1375 614 1342 q 643 1440 632 1408 l 1165 1440 q 1131 1326 1150 1392 q 1092 1199 1111 1260 q 1046 1054 1069 1128 q 1017 967 1031 1010 q 992 881 1004 925 l 468 881 q 495 967 482 925 q 524 1054 508 1010 q 518 1157 535 1118 q 474 1200 501 1196 q 443 1131 450 1165 q 433 1051 436 1096 q 430 997 432 1025 q 427 939 428 968 q 430 881 426 910 q 442 826 433 853 q 460 781 449 804 q 492 746 471 758 q 513 734 503 739 q 535 725 524 729 q 730 720 635 722 q 925 718 825 718 m 361 39 q 339 29 350 35 q 316 17 328 24 q 293 1 304 10 q 267 -53 269 -15 q 267 -151 264 -90 q 271 -210 267 -183 q 276 -256 275 -236 q 270 -286 276 -275 q 243 -297 264 -297 l 240 -297 l 238 -297 q 211 -282 217 -297 q 206 -244 206 -267 q 212 -196 207 -221 q 218 -151 217 -171 q 219 -76 221 -111 q 210 -18 218 -40 q 193 19 199 0 q 189 39 190 29 l 194 39 l 353 39 l 361 39 m 460 36 q 442 21 451 29 q 424 4 433 14 q 404 -18 414 -6 q 385 -101 388 -46 q 385 -249 382 -156 q 388 -334 385 -294 q 391 -403 390 -374 q 387 -449 392 -432 q 367 -467 382 -467 q 361 -464 364 -467 l 361 -467 q 340 -443 344 -467 q 337 -385 336 -419 q 341 -314 338 -351 q 344 -249 344 -276 q 347 -135 347 -190 q 339 -50 346 -81 q 331 -19 333 -35 q 325 10 328 -3 q 321 36 322 25 l 326 36 l 453 36 l 460 36 m 707 36 q 689 33 697 35 q 672 31 682 32 q 654 28 663 31 q 635 15 638 24 q 635 -10 632 6 q 638 -42 636 -18 q 640 -90 640 -65 q 635 -133 640 -114 q 614 -151 629 -151 l 611 -151 l 608 -151 q 590 -131 593 -151 q 588 -86 586 -111 q 593 -38 589 -61 q 597 -10 597 -15 q 599 8 600 -1 q 589 22 597 17 q 583 27 586 25 q 578 32 581 29 l 574 36 l 581 36 l 707 36 m 138 364 q 107 322 122 349 q 86 238 89 294 q 86 85 83 182 q 89 -3 86 38 q 92 -74 92 -44 q 88 -122 92 -104 q 69 -139 83 -139 l 65 -139 l 63 -139 q 44 -115 49 -139 q 42 -56 40 -90 q 46 17 43 -22 q 49 85 49 56 q 48 201 49 143 q 42 292 47 260 q 35 323 38 307 q 31 351 33 339 q 28 381 28 367 l 32 381 l 151 381 l 154 381 l 138 364 m 999 79 q 988 78 993 79 q 976 75 982 76 q 965 72 971 74 q 953 62 954 69 q 951 43 951 54 q 953 20 951 38 q 956 -15 956 3 q 952 -48 956 -33 q 939 -62 949 -62 l 938 -62 l 936 -62 l 935 -62 q 923 -47 925 -62 q 922 -13 921 -32 q 925 22 922 6 q 928 43 928 39 q 928 58 929 50 q 924 69 928 65 q 919 73 921 71 q 917 76 918 75 l 914 79 l 917 79 l 918 79 l 994 79 l 999 79 z "},"T":{"ha":781,"x_min":-299,"x_max":1157,"o":"m 1157 983 l 707 982 q 695 513 701 746 q 688 43 689 279 q 647 41 688 42 q 547 40 607 40 q 417 40 488 40 q 286 40 346 40 q 186 41 226 40 q 146 43 146 42 q 153 511 146 278 q 165 979 160 744 l -286 978 l -299 1374 l 171 1375 l 171 1390 q 211 1392 171 1392 q 312 1393 251 1393 q 442 1393 372 1393 q 573 1393 513 1393 q 674 1392 633 1393 q 714 1390 714 1392 l 714 1376 l 1144 1378 l 1157 983 m 581 43 l 582 43 q 557 31 571 38 q 504 -7 533 18 q 474 -82 476 -32 q 471 -215 471 -132 q 478 -295 472 -258 q 484 -359 483 -332 q 477 -401 485 -386 q 446 -417 469 -417 l 444 -417 l 439 -417 q 409 -395 415 -417 q 403 -342 403 -374 q 410 -276 404 -311 q 417 -215 415 -242 q 417 -112 419 -162 q 404 -33 415 -62 q 395 -6 399 -19 q 389 18 392 7 q 382 43 385 31 l 390 43 l 392 43 l 574 43 l 581 43 m 376 42 l 346 33 q 334 22 335 29 q 333 0 333 14 q 335 -26 333 -7 q 336 -64 336 -44 q 333 -99 336 -83 q 319 -115 329 -115 l 318 -115 q 307 -99 310 -115 q 306 -61 304 -82 q 309 -22 307 -40 q 311 0 311 -4 q 312 16 313 7 q 307 28 311 25 l 299 42 l 303 42 l 374 42 l 376 42 m 338 43 q 314 39 326 40 q 290 35 303 36 q 264 32 276 35 q 233 13 236 25 q 232 -24 231 0 q 237 -65 233 -35 q 240 -129 240 -96 q 231 -188 239 -162 q 200 -214 222 -214 l 197 -214 l 193 -214 q 165 -187 171 -214 q 163 -126 160 -160 q 171 -61 165 -92 q 176 -24 176 -31 q 178 4 179 -10 q 168 25 178 18 q 151 38 157 31 q 146 43 147 40 l 153 43 l 338 43 z "},"U":{"ha":1451,"x_min":-110,"x_max":1440,"o":"m 1401 1347 q 1419 1023 1422 1186 q 1409 697 1415 860 q 1405 372 1403 533 q 1440 50 1407 210 q 1171 35 1289 39 q 1072 32 1121 32 q 984 33 1022 32 q 922 39 946 35 q 896 50 897 43 l 896 53 q 720 47 810 46 q 543 49 631 47 q 334 56 436 49 q 147 95 232 63 q 0 197 61 128 q -87 392 -61 267 q -109 599 -108 492 q -100 814 -110 706 q -74 1028 -90 922 q -46 1235 -58 1135 q -22 1242 -46 1239 q 40 1245 1 1244 q 128 1246 79 1246 q 228 1244 176 1246 q 499 1235 347 1242 q 473 1051 488 1146 q 447 858 458 956 q 433 665 436 761 q 442 481 429 569 q 474 332 453 407 q 540 196 494 257 q 622 169 581 169 q 703 196 663 168 q 796 351 763 263 q 844 540 829 439 q 863 749 860 640 q 863 963 865 857 q 856 1167 860 1069 q 857 1347 853 1265 q 1129 1351 1010 1350 q 1229 1352 1181 1351 q 1316 1352 1278 1353 q 1378 1350 1354 1351 q 1401 1347 1401 1349 m 228 144 l 231 144 q 207 133 219 139 q 183 122 196 128 q 158 107 171 115 q 133 51 135 88 q 133 -50 131 14 q 138 -108 133 -81 q 142 -155 142 -135 q 138 -187 143 -175 q 111 -199 132 -199 l 108 -199 l 106 -199 l 101 -199 q 76 -183 82 -199 q 72 -143 71 -167 q 77 -94 72 -119 q 83 -50 82 -69 q 85 28 86 -10 q 74 88 83 67 q 65 107 68 97 q 58 125 61 117 q 51 144 54 135 l 61 144 l 221 144 l 228 144 m 760 69 l 763 69 l 740 58 q 717 47 729 53 q 693 32 704 40 q 665 -24 667 13 q 665 -125 663 -61 q 669 -183 665 -156 q 674 -230 674 -210 q 669 -262 675 -250 q 643 -274 664 -274 l 640 -274 l 633 -274 q 608 -258 614 -274 q 603 -218 601 -242 q 609 -169 604 -194 q 615 -125 614 -144 q 617 -47 618 -85 q 606 13 615 -8 q 597 32 600 22 q 592 50 594 42 q 586 69 589 60 l 593 69 l 753 69 l 760 69 m 863 67 q 844 51 854 60 q 807 10 826 36 q 786 -72 788 -17 q 785 -222 785 -128 q 790 -310 786 -269 q 794 -381 793 -351 q 790 -428 794 -411 q 769 -446 785 -446 l 765 -446 l 763 -446 q 741 -422 746 -446 q 737 -362 736 -397 q 742 -290 738 -328 q 747 -222 746 -251 q 746 -108 747 -164 q 738 -18 744 -51 q 731 12 733 -3 q 726 39 729 26 q 722 67 724 54 l 728 67 l 857 67 l 863 67 m 1114 69 q 1097 67 1106 68 q 1061 60 1083 65 q 1042 46 1044 56 q 1042 19 1039 36 q 1044 -12 1042 11 q 1046 -60 1046 -35 q 1041 -103 1046 -85 q 1021 -122 1036 -122 l 1017 -122 l 1014 -122 q 995 -102 999 -122 q 993 -56 992 -82 q 999 -8 994 -31 q 1004 19 1003 15 q 1003 39 1004 29 q 994 54 1001 49 q 983 64 990 57 q 979 69 981 67 l 986 69 l 1114 69 m 1290 60 q 1281 49 1286 56 q 1268 35 1275 43 q 1257 -17 1258 18 q 1256 -110 1256 -53 q 1260 -165 1257 -139 q 1263 -208 1263 -190 q 1259 -237 1263 -226 q 1246 -247 1256 -247 l 1243 -247 q 1231 -233 1233 -247 q 1228 -197 1228 -218 q 1231 -153 1229 -176 q 1233 -110 1233 -129 q 1233 -40 1233 -74 q 1231 17 1233 -6 q 1224 53 1225 39 q 1221 69 1222 61 l 1225 69 l 1297 69 l 1300 69 l 1290 60 z "},"V":{"ha":1149,"x_min":-44,"x_max":1324,"o":"m 1243 1364 q 1221 654 1324 986 q 849 47 1118 322 q 799 37 842 40 q 697 33 757 33 q 569 33 638 32 q 444 38 501 35 q 347 43 386 40 q 304 47 307 46 q 167 173 225 99 q 68 335 108 247 q 3 520 28 422 q -32 717 -21 618 q -44 914 -43 817 q -37 1097 -44 1011 q 3 1103 -37 1101 q 105 1103 44 1104 q 235 1099 165 1101 q 366 1096 306 1097 q 467 1094 426 1094 q 507 1097 507 1094 q 500 936 500 1021 q 508 764 500 851 q 532 589 515 676 q 578 419 549 501 q 722 869 690 633 q 697 1364 754 1106 l 1243 1364 m 800 40 q 790 39 796 40 q 771 35 785 38 q 758 24 760 31 q 757 6 757 18 q 760 -15 758 1 q 761 -47 761 -31 q 758 -77 761 -64 q 747 -90 756 -90 l 744 -90 l 742 -90 q 732 -76 733 -90 q 731 -45 731 -62 q 734 -12 732 -28 q 736 6 736 3 q 733 29 740 24 q 725 36 726 33 q 724 40 724 38 l 725 40 l 797 40 l 800 40 m 589 26 q 567 10 569 21 q 567 -18 564 0 q 569 -52 567 -26 q 572 -105 572 -78 q 567 -153 572 -132 q 546 -175 563 -175 l 543 -175 l 540 -175 l 538 -175 q 519 -153 522 -175 q 517 -103 515 -131 q 524 -50 519 -75 q 528 -18 528 -25 q 528 4 529 -7 q 519 22 526 15 q 515 27 517 25 q 510 32 513 29 q 506 38 507 35 l 511 38 l 642 38 l 589 26 m 499 49 l 501 49 q 476 32 490 42 q 451 13 465 24 q 422 -12 436 1 q 393 -103 396 -43 q 393 -265 390 -162 q 397 -361 393 -317 q 403 -438 401 -406 q 397 -490 404 -471 q 367 -508 389 -508 l 361 -508 l 358 -508 q 330 -482 336 -508 q 325 -418 324 -456 q 331 -339 326 -381 q 338 -265 336 -297 q 339 -142 340 -203 q 326 -47 338 -81 q 317 -12 321 -29 q 310 19 313 6 q 303 49 306 35 l 311 49 l 314 49 l 492 49 l 499 49 z "},"W":{"ha":1550,"x_min":-90,"x_max":1688,"o":"m 1135 1349 q 1406 1360 1286 1356 q 1506 1362 1457 1361 q 1592 1361 1554 1363 q 1654 1357 1631 1360 q 1679 1349 1678 1354 q 1685 1197 1688 1285 q 1670 1010 1682 1110 q 1640 802 1658 910 q 1600 591 1622 694 q 1553 394 1578 488 q 1507 226 1529 300 q 1465 104 1485 151 q 1433 46 1446 57 q 1384 31 1422 36 q 1292 25 1346 26 q 1176 24 1239 24 q 1053 27 1113 25 q 944 32 994 29 q 864 36 893 35 q 819 49 833 38 q 795 78 804 60 q 778 122 786 97 q 751 176 769 147 q 707 108 732 139 q 654 54 682 78 q 603 43 646 47 q 501 37 560 39 q 377 35 443 35 q 256 35 311 35 q 165 38 200 36 q 131 39 129 39 q 84 65 100 46 q 50 132 68 85 q 2 297 21 214 q -32 467 -17 381 q -63 671 -49 567 q -84 880 -78 775 q -86 1089 -90 985 q -62 1294 -82 1193 q -37 1305 -61 1301 q 26 1310 -12 1308 q 113 1310 64 1311 q 213 1308 163 1310 q 482 1294 331 1304 q 469 1194 474 1253 q 462 1070 464 1136 q 460 935 460 1004 q 465 801 461 865 q 476 681 469 736 q 493 586 483 625 q 514 701 506 629 q 529 852 522 774 q 544 1003 536 931 q 564 1118 551 1075 q 597 1125 565 1124 q 678 1126 629 1126 q 784 1125 726 1126 q 892 1122 842 1124 q 981 1119 943 1121 q 1026 1118 1018 1118 q 1031 1013 1028 1072 q 1040 892 1035 954 q 1051 770 1046 831 q 1062 663 1057 710 q 1070 586 1067 615 q 1074 556 1074 557 q 1140 950 1118 750 q 1135 1349 1163 1150 m 1001 43 q 978 32 990 38 q 955 19 967 26 q 931 3 943 13 q 906 -50 907 -12 q 907 -150 904 -87 q 911 -208 907 -181 q 915 -256 915 -235 q 909 -288 915 -276 q 882 -300 903 -300 l 879 -300 l 875 -300 q 849 -284 854 -300 q 844 -244 843 -268 q 850 -195 846 -221 q 854 -150 854 -169 q 856 -73 857 -110 q 844 -15 854 -36 q 837 6 840 -4 q 831 24 833 15 q 826 43 828 33 l 833 43 l 994 43 l 1001 43 m 1324 43 q 1301 32 1313 38 q 1278 19 1290 26 q 1256 3 1267 13 q 1228 -50 1231 -12 q 1225 -150 1225 -87 q 1231 -208 1226 -181 q 1236 -256 1235 -235 q 1231 -288 1238 -276 q 1204 -300 1225 -300 l 1201 -300 l 1197 -300 q 1172 -284 1178 -300 q 1168 -244 1167 -268 q 1174 -195 1169 -221 q 1179 -150 1178 -169 q 1178 -73 1179 -110 q 1167 -15 1176 -36 q 1158 6 1161 -4 q 1153 24 1156 15 q 1149 43 1150 33 l 1154 43 l 1317 43 l 1324 43 m 1424 40 q 1406 25 1415 33 q 1388 8 1397 18 q 1369 -15 1378 -3 q 1347 -98 1350 -43 q 1347 -247 1344 -153 q 1351 -335 1347 -294 q 1355 -406 1354 -376 q 1351 -453 1356 -436 q 1329 -471 1346 -471 l 1326 -471 l 1324 -471 q 1302 -447 1307 -471 q 1298 -388 1297 -422 q 1303 -315 1299 -354 q 1308 -247 1307 -276 q 1307 -133 1308 -189 q 1299 -46 1306 -78 q 1292 -15 1294 -31 q 1288 14 1290 1 q 1283 40 1285 29 l 1289 40 l 1418 40 l 1424 40 m 585 40 q 578 39 582 40 q 570 36 575 38 q 561 33 565 35 q 550 25 551 31 q 549 10 549 19 q 550 -9 549 6 q 551 -38 551 -24 q 547 -65 550 -53 q 536 -76 544 -76 l 533 -76 q 525 -64 526 -76 q 525 -36 524 -51 q 528 -7 526 -21 q 531 10 531 7 q 530 22 531 17 q 526 31 529 28 q 519 36 521 33 q 518 40 518 38 l 521 40 l 585 40 m 404 43 q 389 39 396 42 q 356 31 374 35 q 338 17 340 26 q 338 -6 335 8 q 340 -37 338 -14 q 342 -86 342 -61 q 336 -131 342 -111 q 315 -150 331 -150 l 313 -150 q 294 -130 297 -150 q 292 -84 290 -110 q 298 -35 293 -58 q 304 -6 303 -11 q 303 13 304 4 q 294 28 301 21 q 290 33 292 31 q 286 38 289 35 q 282 43 283 40 l 285 43 l 288 43 l 404 43 m 282 43 q 260 28 272 36 q 236 10 249 21 q 211 -12 224 0 q 185 -94 188 -40 q 185 -239 182 -147 q 190 -323 186 -283 q 194 -392 194 -362 q 188 -438 194 -421 q 163 -456 182 -456 q 160 -454 160 -456 q 157 -453 160 -453 l 157 -454 q 153 -456 157 -456 q 128 -432 133 -456 q 124 -375 122 -408 q 129 -304 125 -342 q 135 -239 133 -267 q 136 -126 138 -181 q 126 -43 135 -72 q 117 -12 121 -28 q 111 15 114 3 l 104 43 l 114 43 l 272 43 l 282 43 z "},"X":{"ha":1282,"x_min":-78,"x_max":1404,"o":"m 1404 1353 q 1158 980 1283 1163 q 903 614 1033 797 q 1120 328 1014 472 q 1328 38 1226 185 l 782 38 q 711 142 747 90 q 638 247 675 194 q 616 220 635 244 q 571 163 597 196 q 516 94 544 129 q 467 38 488 60 l -78 38 q -28 101 -65 53 q 56 213 8 149 q 157 347 104 276 q 254 476 210 417 q 328 574 299 535 q 358 614 357 613 q 133 908 244 761 q -78 1211 22 1056 l 467 1211 q 541 1099 503 1154 q 619 989 579 1043 q 742 1170 682 1079 q 860 1353 801 1261 l 1404 1353 m 917 38 q 900 33 908 36 q 883 29 893 31 q 865 25 874 28 q 844 12 846 21 q 843 -11 843 3 q 847 -43 844 -19 q 849 -92 850 -67 q 843 -136 849 -117 q 822 -156 838 -156 l 819 -156 l 817 -156 q 798 -135 801 -156 q 796 -90 794 -115 q 801 -40 797 -64 q 807 -11 806 -17 q 806 7 807 -1 q 797 22 804 15 q 786 32 793 25 q 782 38 783 35 l 789 38 l 917 38 m 1101 38 q 1092 28 1097 33 q 1082 15 1088 22 q 1071 1 1076 8 q 1060 -50 1061 -15 q 1058 -143 1058 -85 q 1062 -197 1060 -172 q 1064 -241 1064 -222 q 1061 -270 1064 -260 q 1049 -281 1058 -281 l 1046 -281 q 1033 -265 1036 -281 q 1031 -228 1031 -250 q 1034 -183 1032 -207 q 1036 -143 1036 -160 q 1036 -72 1036 -107 q 1033 -18 1036 -36 q 1029 2 1031 -7 q 1026 19 1028 11 q 1024 38 1025 28 l 1028 38 l 1097 38 l 1101 38 m 364 40 l 367 40 l 344 29 q 321 17 333 24 q 297 3 308 11 q 269 -53 271 -17 q 269 -154 267 -90 q 274 -212 269 -185 q 278 -259 278 -239 q 274 -291 279 -279 q 247 -303 268 -303 l 244 -303 l 238 -303 q 212 -287 218 -303 q 207 -247 206 -271 q 213 -199 208 -224 q 219 -154 218 -174 q 221 -76 222 -114 q 210 -17 219 -37 q 201 3 204 -7 q 196 21 199 13 q 190 40 193 31 l 197 40 l 357 40 l 364 40 m 467 38 q 449 22 458 31 q 411 -19 431 7 q 390 -101 392 -46 q 389 -251 389 -157 q 394 -340 390 -299 q 398 -410 397 -381 q 394 -458 399 -440 q 374 -475 389 -475 l 369 -475 l 367 -475 q 345 -451 350 -475 q 341 -392 340 -426 q 346 -319 342 -357 q 351 -251 350 -281 q 350 -137 351 -193 q 342 -47 349 -81 q 335 -17 338 -32 q 331 10 333 -3 q 326 38 328 25 l 332 38 l 461 38 l 467 38 z "},"Y":{"ha":1218,"x_min":-181,"x_max":1464,"o":"m 1464 1368 q 1322 703 1397 1033 q 1179 38 1246 372 q 1128 33 1179 35 q 995 31 1078 32 q 808 30 913 31 q 592 29 703 29 q 377 30 482 29 q 190 31 272 31 q 56 33 107 32 q 6 38 6 35 q -26 193 -10 117 q -56 349 -42 269 l 500 349 q 510 294 506 321 q 521 239 515 267 l 665 239 q 683 322 674 281 q 701 407 692 364 q 685 407 699 407 q 651 407 672 407 q 603 407 629 407 q 549 407 576 407 q 404 408 483 407 q 100 853 251 631 q -181 1314 -51 1076 l 375 1314 q 561 998 463 1151 q 764 693 660 844 q 838 1029 801 861 q 908 1368 875 1197 l 1464 1368 m 1185 139 l 1185 129 l 1185 122 l 1185 113 l 1185 108 q 1178 94 1181 103 q 1169 84 1175 89 q 1154 78 1163 79 q 1147 76 1150 76 q 1140 76 1143 76 q 1137 76 1139 75 q 1133 75 1135 76 q 1126 68 1129 75 q 1123 65 1125 67 q 1118 63 1121 63 q 1117 62 1117 63 q 1115 61 1117 61 l 1113 61 q 1106 56 1107 58 l 1104 54 q 1103 53 1104 53 q 1100 51 1101 51 l 1097 51 q 1085 48 1092 47 q 1071 49 1078 49 q 1061 51 1065 51 q 1053 53 1057 51 q 1040 56 1046 56 q 1026 58 1033 56 l 1014 58 q 1011 57 1013 58 q 1008 56 1010 56 q 1007 53 1008 54 l 1003 51 q 996 46 1000 49 q 989 40 992 43 l 989 35 l 989 21 l 989 19 l 986 19 q 985 17 986 18 q 981 10 983 15 q 978 13 978 6 q 974 13 978 15 q 967 13 969 11 q 964 15 965 13 l 963 15 q 959 22 960 18 q 957 28 958 25 q 946 44 953 38 l 942 44 l 942 46 l 939 46 q 938 49 939 47 l 936 49 q 928 51 933 51 q 918 51 922 51 q 903 49 906 51 q 897 47 899 49 q 894 44 896 46 l 892 44 q 888 43 889 44 q 886 42 888 42 q 885 40 886 40 l 883 40 l 881 36 l 879 35 l 876 35 q 875 33 875 35 q 874 32 875 32 q 867 28 869 28 q 865 25 867 26 q 850 15 856 24 q 847 10 847 13 q 844 6 847 8 q 843 -1 843 4 l 843 -6 q 828 -24 840 -21 q 818 -21 822 -24 q 813 -17 814 -18 q 808 -12 810 -15 q 804 -10 807 -10 q 800 -12 801 -10 q 797 -15 799 -15 q 792 -19 793 -17 q 789 -24 790 -22 q 788 -32 786 -29 q 786 -40 789 -35 q 786 -59 786 -49 q 789 -76 786 -69 q 792 -100 792 -90 q 790 -111 792 -110 q 786 -117 790 -117 q 781 -121 783 -122 q 776 -117 778 -119 q 769 -103 769 -111 q 771 -87 769 -96 q 772 -76 771 -82 q 772 -64 772 -71 q 769 -26 779 -42 q 754 -14 768 -17 l 733 -32 q 728 -44 732 -39 q 719 -54 725 -50 q 704 -60 713 -58 q 699 -90 701 -60 q 697 -163 697 -121 q 696 -251 696 -206 q 696 -328 696 -297 l 696 -332 q 696 -361 696 -347 q 699 -387 696 -375 q 701 -437 701 -417 q 690 -464 700 -457 q 684 -471 688 -469 q 675 -474 681 -472 l 674 -474 l 668 -474 q 654 -464 658 -474 q 644 -431 644 -453 q 649 -369 644 -408 q 649 -350 649 -358 q 650 -332 649 -342 q 650 -278 650 -318 q 649 -196 650 -239 q 648 -117 649 -153 q 646 -72 647 -81 q 641 -49 643 -60 q 638 -32 639 -39 q 635 -24 636 -28 q 629 -18 635 -21 q 622 -13 624 -17 q 621 -6 621 -10 q 619 2 621 -1 q 613 6 618 6 q 599 -1 601 6 q 590 -6 597 -7 q 584 -1 588 -6 q 578 6 581 3 q 568 6 572 8 q 561 1 564 3 q 558 0 560 0 q 556 -1 556 0 q 553 -7 554 -7 q 549 -14 550 -10 q 547 -15 549 -15 q 546 -17 546 -15 q 543 -18 543 -17 q 541 -23 542 -21 q 538 -31 540 -25 q 536 -33 538 -32 q 533 -36 535 -33 l 533 -39 q 530 -44 532 -42 q 528 -49 528 -46 l 528 -83 l 528 -87 l 528 -124 q 531 -154 531 -142 q 525 -174 532 -167 q 521 -177 524 -176 q 517 -181 518 -178 l 514 -181 l 511 -181 l 506 -181 q 501 -177 503 -178 q 496 -174 499 -176 q 488 -151 489 -167 q 489 -110 488 -135 q 490 -97 490 -103 q 490 -87 490 -92 l 490 -31 q 485 -22 488 -24 q 478 -14 482 -18 q 471 -10 474 -10 q 456 -10 460 -6 q 450 -12 453 -10 q 444 -17 447 -15 q 438 -20 440 -18 q 429 -22 435 -22 l 424 -22 q 415 -17 422 -18 l 393 -40 q 388 -44 390 -42 q 383 -50 385 -47 q 378 -56 381 -53 q 376 -80 376 -58 q 374 -128 375 -101 q 374 -181 374 -156 q 374 -219 374 -207 l 374 -225 l 374 -260 q 376 -292 376 -279 q 369 -311 376 -304 q 360 -315 365 -315 l 357 -318 l 356 -318 l 349 -315 q 340 -311 344 -315 q 333 -288 333 -304 q 333 -247 332 -272 q 335 -236 335 -240 q 335 -225 335 -232 q 335 -192 335 -217 q 335 -141 335 -168 q 334 -90 335 -114 q 333 -61 333 -67 q 331 -47 332 -54 q 331 -36 331 -40 l 328 -36 q 326 -33 326 -36 q 325 -32 326 -33 q 317 -26 318 -32 q 307 -24 313 -26 q 294 -24 301 -22 l 288 -24 q 286 -25 286 -24 l 286 -26 q 275 -22 279 -26 q 268 -17 271 -18 q 267 -15 268 -15 l 267 -14 q 265 -11 267 -14 l 265 -10 l 264 -10 q 258 -6 260 -6 l 258 -1 l 256 -1 q 251 0 253 0 q 244 1 250 1 q 238 3 243 3 q 230 8 235 6 q 222 10 225 10 q 217 8 219 10 q 211 3 214 6 q 208 1 210 3 l 207 1 q 206 0 206 1 l 200 0 q 196 -2 199 -1 q 193 -6 193 -3 l 192 -6 l 190 -6 q 190 -7 190 -7 q 189 -10 189 -7 l 185 -10 q 184 -17 183 -14 q 185 -24 185 -19 q 189 -36 190 -32 q 183 -39 186 -36 l 182 -40 q 175 -40 176 -42 q 171 -36 174 -39 q 168 -33 171 -33 l 167 -33 q 170 -24 167 -28 q 174 -17 174 -21 l 171 -15 l 169 -15 q 167 -14 168 -15 q 158 -10 164 -4 l 156 -10 q 154 -12 154 -10 q 153 -15 154 -14 q 150 -17 151 -17 q 147 -18 149 -17 q 145 -30 146 -25 q 142 -40 144 -35 q 144 -57 142 -50 q 147 -74 146 -64 q 150 -81 149 -76 q 149 -90 151 -86 q 140 -94 146 -93 q 131 -92 133 -94 q 128 -85 128 -90 q 131 -78 128 -81 q 131 -74 131 -76 q 132 -67 132 -71 q 133 -55 133 -61 q 132 -42 132 -49 q 128 -18 132 -31 q 124 -10 128 -18 q 118 -1 119 -6 l 100 -1 q 97 -1 97 -1 q 94 0 96 0 q 85 6 88 0 q 78 22 79 13 q 75 42 78 31 q 73 45 74 44 q 68 49 72 46 q 66 47 67 49 q 64 46 65 46 q 60 43 61 44 q 53 42 58 42 q 49 43 51 42 q 44 44 47 44 q 32 58 33 51 q 19 61 26 61 q 11 71 13 61 q 9 81 11 76 q 7 88 7 85 l 6 88 l 6 111 l 6 139 l 1185 139 z "},"Z":{"ha":1513,"x_min":-51,"x_max":1614,"o":"m 567 344 q 528 287 543 315 q 508 207 514 258 q 606 208 544 208 q 736 208 668 208 q 867 208 804 208 q 969 207 931 208 q 981 285 976 251 q 990 351 986 319 q 999 416 994 382 q 1013 494 1004 450 l 1557 494 q 1550 440 1554 478 q 1540 353 1546 401 q 1527 252 1535 304 q 1509 157 1519 200 q 1486 85 1499 114 q 1458 54 1474 56 q 1340 49 1422 51 q 1150 44 1257 46 q 922 42 1043 43 q 685 40 800 40 q 474 40 571 40 q 318 42 376 40 q 236 40 290 42 q 126 42 182 39 q 25 56 71 44 q -32 93 -21 68 q -43 192 -51 140 q -10 294 -35 244 q 51 383 15 343 q 119 444 86 422 q 250 519 164 474 q 440 615 336 564 q 654 717 544 665 q 855 810 764 768 q 1006 879 946 851 q 1071 910 1065 907 q 1035 930 1064 914 q 967 968 1007 946 q 883 1015 928 990 q 798 1063 839 1040 q 726 1102 757 1085 q 683 1125 694 1119 q 626 909 656 1017 q 560 696 596 801 l 15 696 q 114 1030 72 860 q 206 1368 156 1200 l 750 1368 q 867 1309 796 1346 q 1022 1228 939 1272 q 1193 1139 1106 1185 q 1356 1053 1281 1093 q 1490 981 1432 1013 q 1571 936 1547 950 q 1606 912 1597 921 q 1609 896 1614 903 q 1589 883 1604 889 q 1556 867 1574 876 q 1508 844 1547 863 q 1413 799 1469 825 q 1289 740 1357 772 q 1152 675 1221 707 q 1021 614 1083 643 q 914 564 958 585 q 819 521 867 542 q 727 475 772 500 q 641 419 682 450 q 567 344 600 388 m -36 218 q 340 208 151 218 q 716 187 528 199 q 1092 165 904 175 q 1468 156 1281 156 l 1468 122 l 1468 90 l 1465 90 l 1465 72 q 1453 60 1463 60 q 1438 53 1443 60 q 1430 46 1435 50 q 1417 39 1425 42 q 1413 38 1415 38 q 1406 36 1410 36 q 1399 38 1400 36 q 1396 39 1399 39 q 1392 43 1393 42 q 1385 42 1390 44 q 1382 36 1382 42 q 1376 12 1379 25 q 1368 -8 1374 -1 q 1354 -17 1364 -17 q 1349 -19 1354 -19 l 1328 -19 q 1324 -25 1325 -22 q 1321 -31 1324 -28 l 1321 -33 q 1318 -71 1318 -46 q 1318 -124 1318 -96 q 1319 -152 1318 -136 q 1321 -183 1321 -168 q 1319 -207 1321 -197 q 1311 -217 1317 -217 l 1307 -217 q 1297 -192 1296 -217 q 1299 -131 1299 -167 q 1292 -130 1296 -131 q 1286 -126 1289 -129 q 1285 -115 1283 -119 q 1289 -104 1286 -110 q 1292 -85 1292 -94 q 1293 -64 1293 -76 q 1292 -51 1293 -57 q 1289 -40 1292 -46 l 1279 -31 l 1276 -31 q 1275 -26 1275 -31 l 1272 -26 q 1258 -31 1263 -26 l 1258 -33 l 1256 -37 q 1258 -46 1256 -43 q 1258 -54 1261 -49 l 1258 -57 q 1254 -63 1258 -60 q 1244 -64 1250 -67 q 1238 -57 1238 -64 q 1236 -51 1235 -54 q 1238 -44 1238 -49 q 1239 -37 1238 -42 q 1238 -26 1240 -32 q 1235 -25 1235 -26 l 1235 -24 l 1232 -24 l 1228 -19 l 1221 -19 l 1221 -17 l 1215 -17 q 1206 -14 1213 -14 q 1196 -6 1201 -6 q 1184 -7 1189 -6 q 1174 -8 1179 -8 q 1169 -14 1171 -14 q 1167 -14 1168 -15 q 1162 -15 1164 -14 q 1157 -17 1160 -17 l 1153 -19 l 1150 -19 q 1145 -23 1147 -22 q 1143 -26 1143 -24 q 1140 -28 1140 -26 q 1136 -31 1139 -31 q 1133 -37 1136 -33 q 1127 -44 1131 -40 q 1113 -47 1124 -47 l 1113 -46 q 1110 -44 1113 -46 l 1103 -44 q 1088 -46 1096 -44 q 1074 -47 1079 -47 q 1069 -51 1071 -50 q 1064 -54 1067 -51 l 1063 -54 q 1061 -57 1061 -54 q 1057 -61 1057 -57 l 1050 -61 l 1050 -64 l 1047 -64 q 1043 -68 1047 -68 l 1043 -69 q 1040 -71 1043 -71 q 1038 -78 1040 -74 q 1036 -87 1036 -82 q 1033 -126 1033 -100 q 1033 -176 1033 -151 q 1035 -204 1033 -187 q 1036 -236 1036 -221 q 1034 -262 1036 -251 q 1026 -272 1032 -272 q 1017 -245 1014 -272 q 1019 -176 1019 -218 q 1018 -112 1019 -136 q 1010 -75 1017 -87 q 1002 -65 1006 -69 q 996 -57 999 -60 l 989 -50 l 993 -50 l 1000 -50 q 993 -47 996 -50 q 981 -42 988 -44 q 968 -40 975 -40 q 958 -36 963 -37 q 947 -37 953 -35 q 942 -39 944 -37 q 938 -40 940 -40 q 931 -44 933 -44 q 922 -42 925 -44 q 914 -37 918 -40 q 907 -32 911 -35 q 900 -26 903 -29 l 879 -26 q 867 -33 874 -29 q 858 -40 861 -37 q 844 -61 849 -50 q 839 -79 842 -72 q 833 -92 836 -86 l 833 -124 l 833 -136 q 839 -153 836 -143 q 844 -169 842 -162 q 838 -196 849 -187 q 828 -217 838 -217 q 817 -200 817 -217 q 804 -183 804 -193 l 804 -172 q 806 -162 804 -167 q 807 -153 807 -158 q 810 -147 810 -150 q 810 -140 810 -143 q 813 -132 813 -135 q 814 -124 814 -129 q 813 -107 814 -114 q 810 -94 813 -100 q 806 -78 810 -87 q 800 -61 803 -68 q 797 -57 797 -61 q 794 -56 796 -57 q 793 -50 793 -54 q 790 -45 790 -47 q 786 -40 789 -43 l 783 -37 q 779 -31 779 -33 q 776 -28 776 -31 q 774 -26 776 -26 q 772 -23 774 -24 q 769 -19 769 -22 q 766 -18 767 -19 q 763 -14 765 -17 q 756 -8 763 -10 q 742 -8 750 -6 q 733 -16 736 -8 q 728 -24 731 -24 q 719 -22 722 -25 q 714 -16 717 -19 q 708 -9 711 -12 q 699 -6 704 -6 q 689 -10 690 -6 q 687 -20 688 -14 q 685 -32 686 -26 q 678 -40 683 -37 q 669 -50 671 -43 q 661 -57 667 -57 q 653 -59 656 -57 q 647 -64 650 -61 q 639 -99 647 -82 q 636 -161 636 -122 q 636 -242 636 -200 q 638 -289 636 -262 q 641 -339 640 -315 q 638 -379 642 -362 q 622 -396 635 -396 l 619 -396 q 606 -386 608 -396 q 603 -360 603 -376 q 605 -320 603 -343 q 608 -269 607 -297 q 599 -256 599 -257 q 601 -234 599 -244 q 606 -214 603 -224 q 608 -203 608 -203 q 608 -193 608 -204 l 608 -149 l 608 -146 q 603 -106 606 -122 q 592 -78 600 -90 q 568 -53 579 -62 q 554 -40 557 -43 q 544 -35 549 -37 q 535 -31 540 -33 q 511 -34 521 -28 q 496 -47 501 -40 q 491 -68 493 -54 q 492 -94 489 -82 q 494 -108 492 -101 q 496 -124 496 -114 q 497 -142 496 -133 q 492 -156 497 -150 q 475 -160 481 -164 q 474 -157 475 -158 q 474 -154 474 -156 l 472 -153 q 469 -147 469 -150 q 468 -140 468 -143 q 470 -124 468 -133 q 472 -108 472 -114 q 475 -86 475 -97 q 475 -64 475 -75 q 472 -47 475 -50 q 470 -39 472 -42 q 465 -33 468 -36 q 458 -31 460 -31 l 456 -31 q 449 -33 450 -31 q 444 -37 447 -35 q 437 -42 442 -40 q 425 -44 432 -44 q 410 -37 415 -44 q 403 -24 406 -29 l 403 -8 q 399 -1 400 -6 q 396 6 399 3 q 379 15 382 11 q 372 18 375 18 q 365 25 372 21 l 364 25 q 358 29 360 25 q 356 31 356 29 l 356 32 l 351 32 l 349 36 l 344 39 l 342 39 q 337 42 339 42 q 332 46 335 43 l 311 46 l 286 46 q 283 43 283 46 l 283 42 l 279 42 q 276 40 278 42 l 276 39 l 272 39 q 266 32 269 36 q 263 22 263 28 q 259 13 260 17 q 256 6 258 8 l 253 1 l 249 1 q 240 -1 246 -1 q 232 1 235 -1 q 228 3 229 1 q 225 6 228 6 l 225 8 l 222 8 l 222 11 q 221 20 219 17 q 222 29 222 24 l 218 32 q 213 40 218 38 q 203 49 208 43 l 199 49 l 194 53 q 188 56 192 53 q 181 56 185 56 q 174 53 176 56 q 157 52 167 53 q 140 49 147 51 q 128 47 133 49 q 117 46 122 46 q 82 46 100 39 q 75 49 82 49 l 71 53 q 64 56 68 56 q 59 59 61 58 q 54 63 57 60 q 44 69 51 63 q 33 76 40 69 l 26 76 q 19 76 24 76 q 10 79 15 76 q 3 92 3 82 q -3 111 4 103 q -7 116 -3 113 q -17 126 -11 119 q -28 146 -22 133 q -36 178 -33 158 l -36 188 l -36 197 l -36 208 l -36 218 z "},"B":{"ha":1354,"x_min":-67,"x_max":1388,"o":"m 1006 975 q 1136 928 1076 964 q 1242 842 1196 893 q 1321 726 1289 790 q 1370 593 1353 663 q 1388 453 1388 524 q 1369 317 1388 382 q 1307 196 1349 247 q 1210 110 1265 144 q 1088 57 1154 75 q 954 35 1022 39 q 874 33 928 33 q 750 31 821 32 q 597 31 679 31 q 435 32 515 32 q 18 35 244 33 q 13 78 17 35 q 3 187 8 121 q -7 328 -1 253 q -15 468 -12 404 q -17 516 -15 469 q -22 637 -18 563 q -29 807 -25 711 q -39 1002 -33 903 q -51 1197 -44 1101 q -67 1367 -58 1292 q -26 1363 -67 1363 q 76 1365 15 1363 q 208 1369 136 1367 q 340 1374 279 1372 q 442 1374 401 1375 q 483 1367 482 1372 q 485 1355 485 1360 q 486 1344 485 1350 q 644 1346 565 1347 q 803 1338 724 1344 q 913 1310 858 1332 q 1004 1250 967 1288 q 1056 1161 1042 1213 q 1044 1047 1069 1110 q 1025 1006 1035 1024 q 1001 975 1015 989 l 1006 975 m 519 1049 q 513 1171 524 1110 q 504 1207 510 1190 q 492 1242 499 1224 q 499 1145 496 1193 q 508 1049 503 1097 l 519 1049 m 633 94 q 756 206 710 138 q 819 356 801 275 q 829 524 838 438 q 788 690 821 611 q 700 835 756 769 q 569 938 644 900 q 534 948 550 946 q 518 938 518 950 q 535 544 529 739 q 543 151 540 350 q 549 124 543 139 q 566 99 554 110 q 594 86 578 89 q 633 94 611 83 m 624 35 q 601 24 613 29 q 579 12 592 18 q 556 -3 567 6 q 529 -58 532 -21 q 528 -157 526 -94 q 532 -215 528 -187 q 538 -261 536 -242 q 533 -292 539 -281 q 507 -304 526 -304 l 506 -304 l 503 -304 l 499 -304 q 474 -288 479 -304 q 469 -249 468 -272 q 474 -201 469 -226 q 479 -157 479 -176 q 479 -81 481 -118 q 469 -22 478 -44 q 456 17 460 -1 q 450 35 451 26 l 456 35 l 458 35 l 617 35 l 624 35 m 424 32 q 406 17 414 25 q 369 -24 389 1 q 348 -105 350 -50 q 347 -253 346 -160 q 351 -339 347 -299 q 355 -409 354 -379 q 351 -456 356 -439 q 331 -474 346 -474 l 329 -474 q 326 -472 328 -474 q 325 -474 325 -472 q 303 -450 308 -474 q 300 -392 299 -426 q 305 -320 301 -358 q 308 -253 308 -282 q 308 -140 310 -194 q 300 -53 307 -85 q 294 -23 297 -37 q 289 4 292 -8 q 285 32 286 19 l 290 32 l 418 32 l 424 32 m 276 33 q 250 31 264 32 q 224 28 239 29 q 194 25 208 26 q 163 10 167 19 q 161 -15 158 1 q 163 -35 161 -24 q 163 -59 164 -47 q 158 -81 163 -71 q 140 -92 153 -90 q 140 -92 139 -92 q 142 -93 140 -93 l 143 -93 q 140 -92 142 -93 q 138 -92 138 -92 q 135 -93 138 -93 q 102 -83 111 -93 q 93 -59 93 -72 q 97 -33 93 -46 q 101 -15 100 -19 q 103 4 104 -6 q 90 19 101 14 q 79 24 83 22 q 72 29 75 26 q 65 33 68 32 l 75 33 l 268 33 l 276 33 m 822 33 q 800 19 813 28 q 776 2 789 13 q 753 -21 764 -8 q 726 -99 729 -46 q 726 -244 724 -153 q 731 -328 726 -289 q 735 -396 735 -367 q 730 -442 736 -425 q 704 -458 724 -458 q 700 -457 701 -458 q 697 -458 699 -457 q 672 -435 678 -458 q 667 -379 665 -412 q 672 -309 668 -346 q 678 -244 676 -272 q 678 -133 679 -187 q 668 -49 676 -79 q 660 -19 663 -33 q 654 7 657 -4 q 649 33 651 21 l 656 33 l 815 33 l 822 33 m 938 33 q 926 24 932 29 q 906 -1 915 15 q 894 -51 894 -17 q 894 -143 893 -85 q 897 -197 894 -172 q 899 -240 899 -221 q 896 -269 899 -258 q 885 -279 893 -279 l 883 -279 l 882 -279 l 881 -279 q 869 -265 872 -279 q 867 -229 867 -250 q 870 -185 868 -208 q 872 -143 872 -161 q 872 -73 872 -107 q 868 -19 871 -39 q 861 17 863 3 q 860 33 860 25 l 863 33 l 933 33 l 936 33 l 938 33 z "},"!":{"ha":756,"x_min":100,"x_max":654,"o":"m 644 269 q 604 267 644 268 q 503 266 564 267 q 372 265 443 265 q 241 266 301 265 q 140 267 181 267 q 100 269 100 268 q 106 815 101 544 q 108 1361 110 1086 q 149 1363 108 1363 q 249 1363 189 1363 q 381 1364 310 1364 q 512 1364 451 1364 q 613 1363 572 1364 q 653 1361 653 1363 q 650 815 654 1086 q 644 269 646 544 m 110 229 q 150 231 110 231 q 251 232 190 232 q 382 232 311 232 q 513 232 453 232 q 614 231 574 232 q 654 229 654 231 q 653 126 654 178 q 651 24 653 75 q 611 22 651 22 q 510 20 571 21 q 379 19 450 19 q 248 20 308 19 q 147 22 188 21 q 107 24 107 22 q 108 126 107 75 q 110 229 110 178 z "},"?":{"ha":1371,"x_min":54,"x_max":1301,"o":"m 410 229 q 450 231 410 231 q 551 232 490 232 q 682 232 611 232 q 813 232 753 232 q 914 231 874 232 q 954 229 954 231 q 953 126 954 178 q 953 24 953 75 q 913 22 953 22 q 811 20 872 21 q 680 19 750 19 q 549 20 610 19 q 447 22 488 21 q 407 24 407 22 q 408 126 407 75 q 410 229 410 178 m 1081 1317 q 1126 1313 1097 1315 q 1185 1305 1154 1310 q 1242 1290 1215 1300 q 1281 1267 1268 1281 q 1296 1206 1301 1242 q 1273 1132 1290 1169 q 1233 1060 1256 1094 q 1197 1006 1210 1026 q 1094 831 1143 918 q 1010 651 1046 743 q 955 460 975 558 q 938 256 935 363 q 897 255 938 256 q 796 253 857 254 q 665 252 735 253 q 533 252 594 251 q 432 253 472 253 q 392 256 392 254 q 403 422 390 343 q 440 576 417 501 q 497 724 464 651 q 571 868 531 796 q 490 867 539 868 q 384 867 440 867 q 272 867 328 867 q 170 867 215 867 q 97 867 125 867 q 68 869 68 868 q 63 980 68 921 q 56 1099 58 1039 q 56 1216 54 1158 q 74 1324 58 1274 q 116 1341 76 1335 q 219 1350 156 1347 q 364 1352 282 1353 q 533 1349 446 1351 q 706 1342 619 1346 q 867 1333 793 1338 q 998 1324 942 1328 q 1081 1317 1054 1319 m 613 940 q 645 990 625 960 q 686 1054 665 1019 q 724 1125 707 1089 q 748 1192 742 1161 q 745 1247 754 1224 q 704 1279 736 1269 q 660 1291 682 1286 q 614 1301 638 1296 q 611 1271 611 1286 q 611 1243 611 1256 q 610 1091 608 1167 q 613 940 611 1015 z "}," ":{"ha":417,"x_min":0,"x_max":0,"o":""},"":{"ha":1499,"x_min":61,"x_max":1458,"o":"m 914 518 q 938 526 914 524 q 1000 531 961 529 q 1088 531 1039 532 q 1188 529 1136 531 q 1458 518 1307 525 q 1420 290 1442 403 q 1378 64 1399 178 q 1344 56 1376 60 q 1264 49 1313 51 q 1158 44 1215 46 q 1050 40 1101 42 q 960 38 999 39 q 913 38 922 38 q 655 35 783 39 q 399 38 526 31 q 360 40 388 38 q 299 48 333 43 q 226 60 264 53 q 157 76 189 67 q 103 97 125 85 q 76 124 81 108 q 72 227 61 175 q 108 329 83 279 q 167 424 133 379 q 233 504 201 468 q 275 551 254 528 q 319 596 296 574 l 199 596 l 199 667 l 404 667 q 453 699 429 685 q 414 706 429 701 q 393 719 399 711 q 380 742 386 731 q 367 767 374 754 l 199 767 l 199 838 l 324 838 q 260 947 292 889 q 205 1062 228 1004 q 172 1174 182 1119 q 178 1278 163 1229 q 199 1317 185 1303 q 231 1340 213 1332 q 270 1351 249 1349 q 315 1354 292 1354 q 378 1355 325 1354 q 514 1356 432 1356 q 697 1357 596 1357 q 903 1358 799 1357 q 1106 1358 1007 1358 q 1283 1358 1206 1358 q 1406 1358 1360 1358 q 1453 1357 1453 1358 q 1456 1162 1454 1258 q 1453 967 1458 1065 q 1413 962 1453 963 q 1312 962 1372 961 q 1181 964 1251 963 q 1051 966 1111 965 q 949 967 990 967 q 908 967 908 968 q 912 1067 911 1017 q 911 1167 913 1117 q 819 1167 867 1167 q 726 1169 771 1168 q 753 1083 736 1125 q 786 1008 771 1042 q 798 981 790 999 q 815 940 806 963 q 837 890 825 917 q 861 838 849 864 l 978 838 l 978 767 l 875 767 q 876 716 875 742 q 876 667 876 690 l 978 667 l 978 596 l 860 596 q 816 549 836 572 q 778 504 796 525 q 732 447 757 478 q 684 381 707 415 q 643 310 661 347 q 617 236 625 274 q 676 236 642 236 q 747 237 711 236 q 814 238 782 238 q 865 239 846 239 q 891 378 879 310 q 914 518 903 447 z "},"$":{"ha":1186,"x_min":35,"x_max":1132,"o":"m 1128 585 q 1130 491 1128 540 q 1127 394 1132 442 q 1106 303 1122 346 q 1054 226 1090 260 q 942 160 1001 178 q 818 138 883 142 l 819 138 l 817 138 q 763 136 807 136 q 660 135 718 136 l 660 29 l 628 29 l 628 135 l 585 135 l 585 29 l 554 29 l 554 135 q 465 135 507 135 q 393 136 422 135 q 326 147 360 139 q 264 175 292 154 q 196 265 215 211 q 174 381 176 319 l 35 388 l 39 596 l 554 568 l 554 690 q 533 692 543 692 q 511 693 522 693 q 435 692 486 693 q 331 692 385 692 q 233 693 278 692 q 172 700 188 694 q 108 748 128 715 q 84 822 89 781 q 83 906 79 863 q 88 988 86 950 q 105 1060 89 1029 q 147 1112 121 1090 q 206 1146 172 1133 q 276 1163 239 1158 q 414 1175 344 1172 q 554 1178 483 1178 l 554 1375 l 585 1375 l 585 1178 q 606 1176 596 1176 q 628 1176 617 1176 l 628 1375 l 660 1375 l 660 1176 q 676 1228 668 1203 q 693 1282 685 1254 q 726 1285 694 1285 q 807 1285 758 1286 q 911 1283 856 1285 q 1015 1281 967 1282 q 1094 1280 1063 1281 q 1128 1282 1126 1279 q 1098 1188 1115 1242 q 1065 1085 1081 1133 q 1028 968 1047 1028 q 1005 898 1017 932 q 982 828 993 864 q 948 823 981 824 q 867 823 915 822 q 763 825 819 824 q 660 828 707 826 l 660 701 q 794 700 726 701 q 928 694 861 699 q 995 690 960 692 q 1060 679 1031 689 q 1108 648 1089 669 q 1128 585 1128 626 m 628 829 l 585 829 l 585 708 q 604 701 594 703 l 628 701 l 628 829 m 593 968 q 585 1013 592 992 l 585 940 q 589 954 588 947 q 593 968 590 961 m 526 783 q 537 755 531 769 q 554 729 543 740 l 554 828 l 549 828 q 554 844 551 839 l 554 1083 q 553 1086 553 1085 q 527 1031 532 1058 q 519 967 522 1003 q 517 921 518 944 q 515 874 515 897 q 517 827 514 850 q 526 783 519 804 m 585 567 l 628 564 l 628 678 q 585 686 607 683 l 585 567 m 611 357 q 628 282 615 314 l 628 356 l 611 357 m 667 290 q 679 334 674 304 q 689 401 685 364 q 696 477 693 438 q 699 551 699 517 q 696 610 699 585 q 688 643 693 635 q 660 665 676 656 l 660 563 l 660 556 l 660 276 q 663 283 661 279 q 667 290 664 286 z "},"(":{"ha":581,"x_min":38,"x_max":543,"o":"m 76 14 l 76 28 l 71 219 l 90 219 q 94 458 96 339 q 86 696 92 576 q 74 934 81 815 q 63 1172 67 1053 l 42 1172 l 38 1378 l 503 1375 l 508 1171 l 319 1171 q 344 695 329 933 q 347 218 358 457 l 538 218 l 543 13 l 76 14 z "},")":{"ha":581,"x_min":38,"x_max":543,"o":"m 504 1376 l 504 1363 l 510 1171 l 490 1171 q 487 933 485 1051 q 494 694 489 814 q 507 456 500 575 q 518 218 514 338 l 539 218 l 543 13 l 78 15 l 72 219 l 261 219 q 237 695 251 457 q 233 1172 222 933 l 43 1172 l 38 1378 l 504 1376 z "},"+":{"ha":574,"x_min":36,"x_max":538,"o":"m 529 663 q 531 631 529 663 q 535 563 533 600 q 537 495 536 526 q 538 464 538 464 q 371 460 456 460 q 370 385 371 422 q 369 311 369 347 q 338 310 369 310 q 270 310 307 310 q 202 310 233 310 q 171 311 171 311 q 172 383 171 347 q 174 456 172 419 q 110 453 142 454 q 46 451 78 453 q 44 483 46 451 q 40 551 42 514 q 38 619 39 588 q 38 650 36 650 q 107 652 72 651 q 178 654 142 653 q 180 728 179 692 q 181 803 181 765 q 212 804 181 804 q 280 804 243 804 q 348 803 317 804 q 379 803 379 803 q 378 731 379 767 q 376 658 378 694 q 453 660 415 660 q 529 663 490 661 z "},"-":{"ha":490,"x_min":39,"x_max":451,"o":"m 444 417 q 242 423 343 422 q 39 431 140 424 l 47 592 q 249 585 147 586 q 451 578 351 585 l 444 417 z "},"/":{"ha":928,"x_min":32,"x_max":894,"o":"m 685 1383 q 701 1377 685 1385 q 740 1358 717 1369 q 791 1333 764 1347 q 842 1308 818 1319 q 880 1287 865 1296 q 894 1278 894 1278 q 569 644 733 957 q 242 11 404 331 q 226 17 242 10 q 186 36 210 25 q 135 61 163 47 q 85 87 108 75 q 47 107 63 99 q 32 117 32 115 q 358 750 194 436 q 685 1383 522 1064 z "},"\\":{"ha":928,"x_min":32,"x_max":896,"o":"m 243 1383 q 569 750 406 1064 q 896 117 733 436 q 881 107 896 115 q 842 87 865 99 q 792 61 819 75 q 742 36 765 47 q 702 17 718 25 q 686 11 686 10 q 359 644 524 331 q 33 1278 194 957 q 47 1287 32 1278 q 86 1308 63 1296 q 137 1333 110 1319 q 188 1358 164 1347 q 227 1377 211 1369 q 243 1383 243 1385 z "},"A":{"ha":1238,"x_min":-104,"x_max":1307,"o":"m 126 1335 q 182 1344 128 1340 q 317 1349 236 1347 q 492 1349 397 1350 q 667 1347 586 1349 q 803 1342 749 1346 q 858 1335 857 1339 q 1085 641 974 986 q 1307 -54 1197 296 q 1263 -51 1307 -51 q 1153 -51 1218 -50 q 1011 -52 1088 -51 q 869 -53 935 -53 q 760 -55 804 -54 q 717 -54 717 -56 q 678 56 690 -1 q 647 172 665 114 l 511 172 q 500 124 506 149 q 488 76 494 100 q 440 55 485 63 q 328 43 394 47 q 187 40 263 39 q 47 44 111 40 q -61 57 -18 49 q -104 76 -104 65 q -93 137 -104 74 q -63 305 -82 200 q -20 544 -44 410 q 30 820 4 679 q 81 1095 56 961 q 126 1335 106 1229 m 488 325 q 531 323 506 324 q 582 322 557 322 q 626 320 607 321 q 654 319 646 319 q 601 483 628 403 q 549 644 575 564 q 519 485 535 565 q 488 325 503 406 m 135 54 q 111 43 124 49 q 88 31 100 38 q 63 14 75 24 q 35 -44 38 -6 q 33 -149 32 -82 q 39 -208 35 -181 q 44 -257 43 -236 q 38 -290 44 -278 q 10 -301 31 -301 l 8 -301 l 4 -301 q -23 -285 -17 -301 q -28 -244 -29 -268 q -23 -194 -28 -221 q -17 -149 -18 -168 q -17 -68 -15 -107 q -28 -7 -18 -29 q -37 15 -33 4 q -43 35 -40 26 q -49 54 -47 44 l -42 54 l -40 54 l 128 54 l 135 54 m 343 54 l 346 54 q 321 39 333 47 q 297 21 310 32 q 272 -4 285 10 q 245 -87 249 -32 q 244 -239 242 -143 q 249 -328 244 -287 q 253 -401 253 -369 q 248 -449 254 -432 q 221 -467 242 -467 l 219 -467 l 218 -467 q 215 -464 215 -467 l 213 -467 q 185 -442 192 -467 q 180 -383 179 -418 q 185 -308 181 -347 q 192 -239 190 -268 q 192 -124 193 -181 q 181 -35 190 -67 q 172 -3 175 -19 q 165 26 168 14 q 160 54 161 42 l 168 54 l 338 54 l 343 54 m 465 54 q 456 43 461 49 q 445 31 451 38 q 433 17 439 25 q 421 -37 422 -1 q 419 -133 419 -72 q 422 -190 419 -164 q 424 -237 424 -217 q 422 -268 425 -257 q 411 -279 419 -279 l 408 -279 l 408 -276 l 407 -279 q 394 -263 397 -279 q 392 -225 392 -247 q 394 -178 392 -203 q 397 -133 397 -153 q 397 -60 397 -96 q 392 -3 396 -24 q 388 18 389 8 q 386 36 388 28 q 383 54 385 46 l 388 54 l 461 54 l 465 54 z "},"a":{"ha":1238,"x_min":-104,"x_max":1307,"o":"m 126 1335 q 182 1344 128 1340 q 317 1349 236 1347 q 492 1349 397 1350 q 667 1347 586 1349 q 803 1342 749 1346 q 858 1335 857 1339 q 1085 641 974 986 q 1307 -54 1197 296 q 1281 -52 1307 -53 q 1214 -52 1256 -51 q 1119 -54 1172 -53 q 1012 -56 1067 -56 q 904 -58 957 -57 q 810 -60 851 -60 q 744 -58 769 -60 q 717 -54 718 -57 q 682 58 699 3 q 647 172 665 114 l 511 172 q 500 124 506 149 q 488 76 494 100 q 440 55 485 63 q 328 43 394 47 q 187 40 263 39 q 47 44 111 40 q -61 57 -18 49 q -104 76 -104 65 q -93 137 -104 74 q -63 305 -82 200 q -20 544 -44 410 q 30 820 4 679 q 81 1095 56 961 q 126 1335 106 1229 m 488 325 q 531 323 506 324 q 582 322 557 322 q 626 320 607 321 q 654 319 646 319 q 601 483 628 403 q 549 644 575 564 q 519 485 535 565 q 488 325 503 406 z "},"b":{"ha":1354,"x_min":-67,"x_max":1388,"o":"m 1006 975 q 1136 928 1076 964 q 1242 842 1196 893 q 1321 726 1289 790 q 1370 593 1353 663 q 1388 453 1388 524 q 1369 317 1388 382 q 1307 196 1349 247 q 1210 110 1265 144 q 1088 57 1154 75 q 954 35 1022 39 q 874 33 928 33 q 750 31 821 32 q 597 31 679 31 q 435 32 515 32 q 18 35 244 33 q 13 78 17 35 q 3 187 8 121 q -7 328 -1 253 q -15 468 -12 404 q -17 516 -15 469 q -22 637 -18 563 q -29 807 -25 711 q -39 1002 -33 903 q -51 1197 -44 1101 q -67 1367 -58 1292 q -26 1363 -67 1363 q 76 1365 15 1363 q 208 1369 136 1367 q 340 1374 279 1372 q 442 1374 401 1375 q 483 1367 482 1372 q 485 1355 485 1360 q 486 1344 485 1350 q 644 1346 565 1347 q 803 1338 724 1344 q 913 1310 858 1332 q 1004 1250 967 1288 q 1056 1161 1042 1213 q 1044 1047 1069 1110 q 1025 1006 1035 1024 q 1001 975 1015 989 l 1006 975 m 519 1049 q 513 1171 524 1110 q 504 1207 510 1190 q 492 1242 499 1224 q 499 1145 496 1193 q 508 1049 503 1097 l 519 1049 m 633 94 q 756 206 710 138 q 819 356 801 275 q 829 524 838 438 q 788 690 821 611 q 700 835 756 769 q 569 938 644 900 q 534 948 550 946 q 518 938 518 950 q 535 544 529 739 q 543 151 540 350 q 549 124 543 139 q 566 99 554 110 q 594 86 578 89 q 633 94 611 83 z "},"c":{"ha":1256,"x_min":24,"x_max":1281,"o":"m 746 1353 q 803 1354 758 1354 q 907 1355 847 1354 q 1032 1356 967 1356 q 1153 1355 1097 1356 q 1244 1353 1208 1354 q 1281 1351 1281 1353 q 1281 1026 1281 1188 q 1271 700 1281 864 q 1230 695 1271 696 q 1128 695 1189 694 q 998 697 1068 696 q 867 700 928 699 q 766 701 807 701 q 725 700 725 701 q 735 960 733 831 q 736 1221 736 1090 q 689 1204 718 1214 q 633 1181 660 1194 q 587 1152 606 1168 q 571 1119 568 1136 q 606 855 589 986 q 640 589 622 724 q 662 424 651 506 q 683 260 672 343 q 695 420 690 340 q 703 581 700 500 q 743 584 703 583 q 844 585 783 585 q 975 583 904 585 q 1106 581 1046 582 q 1207 580 1167 581 q 1247 581 1247 579 q 1232 307 1240 443 q 1203 35 1224 171 q 1169 31 1203 32 q 1080 28 1135 29 q 955 28 1025 28 q 810 31 885 29 q 662 34 735 32 q 528 38 589 36 q 427 40 468 39 q 375 43 386 42 q 317 47 353 44 q 248 56 282 49 q 188 78 214 63 q 157 125 161 94 q 124 370 140 249 q 92 615 108 492 q 58 873 75 746 q 25 1131 42 1000 q 65 1162 24 1142 q 174 1206 107 1182 q 322 1256 240 1231 q 484 1301 404 1281 q 631 1335 564 1321 q 736 1351 699 1349 q 741 1352 739 1351 q 746 1353 743 1353 z "},"d":{"ha":1454,"x_min":-78,"x_max":1443,"o":"m 1351 1253 q 1408 1224 1390 1253 q 1433 1154 1426 1194 q 1438 1071 1439 1114 q 1438 1000 1436 1028 q 1443 756 1443 878 q 1442 510 1443 633 q 1440 400 1442 460 q 1426 283 1438 340 q 1387 177 1414 226 q 1308 99 1360 128 q 1217 60 1265 74 q 1119 40 1169 46 q 1019 32 1069 33 q 919 31 968 31 q 458 31 689 26 q 340 34 400 32 q 225 56 281 36 q 22 300 44 118 q 29 801 29 551 q 6 1303 29 1051 q -3 1308 6 1303 q -24 1319 -11 1313 q -51 1335 -36 1326 q -78 1353 -65 1344 q -39 1353 -76 1351 q 54 1358 -1 1356 q 175 1363 110 1360 q 299 1365 240 1365 q 402 1363 358 1365 q 457 1353 446 1360 q 571 1294 511 1317 q 696 1261 631 1272 q 738 1256 717 1258 q 779 1250 758 1253 q 1065 1255 922 1254 q 1351 1253 1208 1256 m 881 246 q 903 381 894 294 q 917 571 913 468 q 922 782 922 674 q 918 982 922 890 q 905 1138 914 1074 q 882 1215 896 1201 q 714 1226 800 1214 q 546 1239 628 1239 q 563 775 564 1006 q 556 311 561 544 q 565 243 557 283 q 591 165 574 203 q 638 101 608 128 q 714 72 668 74 q 771 87 744 72 q 818 125 797 101 q 855 180 839 149 q 881 246 871 211 z "},"e":{"ha":1301,"x_min":-112,"x_max":1314,"o":"m 757 519 q 781 528 757 525 q 845 533 806 532 q 934 534 885 535 q 1036 532 983 533 q 1313 519 1158 528 q 1275 288 1297 401 q 1231 57 1253 174 q 1197 48 1231 51 q 1115 41 1164 44 q 1007 35 1065 38 q 896 32 949 33 q 804 30 843 31 q 756 29 765 29 q 493 26 625 31 q 231 29 361 22 q 192 32 219 29 q 129 40 164 35 q 56 51 94 44 q -15 68 18 58 q -70 90 -47 78 q -97 117 -93 101 q -101 222 -112 168 q -63 327 -89 276 q -3 424 -37 378 q 63 506 31 469 q 142 591 101 550 q 231 667 183 632 q 259 687 246 678 q 288 704 272 696 q 247 712 264 707 q 226 725 231 717 q 181 804 208 760 q 124 897 153 849 q 69 998 96 946 q 24 1102 42 1050 q -1 1203 6 1154 q 7 1296 -7 1253 q 28 1336 14 1321 q 60 1360 42 1351 q 101 1371 79 1368 q 146 1374 122 1374 q 211 1374 156 1374 q 350 1376 267 1375 q 537 1376 433 1376 q 747 1377 640 1376 q 954 1378 853 1378 q 1134 1378 1056 1378 q 1260 1378 1213 1378 q 1308 1376 1308 1378 q 1312 1177 1310 1276 q 1308 978 1314 1078 q 1267 974 1308 975 q 1163 973 1225 972 q 1030 975 1101 974 q 897 977 958 976 q 794 978 835 978 q 753 978 753 979 q 756 1080 756 1029 q 756 1181 756 1131 q 662 1183 711 1182 q 565 1185 613 1183 q 594 1097 576 1140 q 628 1021 613 1054 q 641 990 632 1010 q 660 944 650 969 q 684 890 671 918 q 710 833 697 861 q 778 834 740 833 q 848 834 815 835 q 902 833 881 833 q 924 831 924 832 q 923 723 922 775 q 922 619 924 671 q 906 616 922 617 q 861 615 889 615 q 797 615 833 614 q 719 615 760 615 q 665 559 690 588 q 618 506 640 531 q 571 447 596 479 q 523 380 546 415 q 481 307 500 344 q 454 231 463 269 q 516 231 481 231 q 588 233 551 232 q 656 234 624 233 q 708 235 689 235 q 735 378 722 307 q 757 519 747 449 z "},"f":{"ha":950,"x_min":-193,"x_max":1129,"o":"m 1018 1035 q 992 1029 1017 1031 q 930 1027 968 1028 q 842 1026 892 1026 q 743 1028 793 1026 q 474 1035 624 1031 q 494 1097 485 1065 q 515 1160 504 1128 q 449 1160 483 1160 q 382 1161 415 1161 q 394 1117 383 1157 q 419 1024 404 1076 q 451 915 435 971 q 479 821 467 858 q 532 822 493 821 q 621 822 571 822 q 725 822 671 822 q 824 822 779 822 q 899 822 869 822 q 928 819 928 821 q 940 764 935 789 q 949 716 944 739 q 958 669 954 693 q 968 615 963 644 q 925 612 968 613 q 818 611 882 611 q 681 612 754 611 q 547 614 607 613 q 645 324 596 468 q 739 32 694 179 q 468 25 588 26 q 368 24 417 24 q 281 24 319 24 q 218 27 242 25 q 194 32 194 29 q 138 205 175 94 q 56 447 100 315 q -35 721 11 579 q -117 988 -81 863 q -173 1212 -153 1114 q -186 1354 -193 1310 q -136 1359 -186 1357 q -3 1362 -86 1361 q 186 1362 79 1363 q 408 1360 293 1361 q 637 1358 522 1360 q 849 1354 751 1356 q 1018 1351 946 1353 q 1119 1349 1090 1350 l 1129 1349 q 1071 1193 1096 1272 q 1018 1035 1046 1114 z "},"g":{"ha":1354,"x_min":-61,"x_max":1388,"o":"m 603 796 q 647 797 603 796 q 761 797 692 797 q 918 797 831 797 q 1092 796 1006 796 q 1253 794 1178 796 q 1378 792 1329 793 q 1388 790 1381 790 q 1366 673 1381 744 q 1333 520 1351 601 q 1296 356 1315 439 q 1258 206 1276 274 q 1225 92 1240 138 q 1201 42 1210 47 q 1160 33 1186 32 q 1119 33 1135 33 q 624 26 869 24 q 129 31 378 28 q 88 30 104 31 q 58 34 71 29 q 38 51 46 39 q 25 89 31 64 q 17 149 22 100 q 6 272 13 199 q -9 436 -1 346 q -24 619 -17 526 q -39 799 -32 711 q -51 956 -46 888 q -58 1065 -56 1024 q -61 1107 -61 1107 q 1 1128 -47 1113 q 119 1166 50 1144 q 272 1213 189 1188 q 435 1264 354 1239 q 591 1313 517 1289 q 718 1354 665 1336 q 770 1358 728 1357 q 871 1360 813 1360 q 995 1359 929 1360 q 1118 1357 1061 1358 q 1215 1355 1175 1356 q 1263 1354 1256 1354 q 1261 1353 1263 1354 q 1263 1354 1263 1353 q 1263 1134 1263 1243 q 1264 914 1264 1025 q 1224 912 1264 913 q 1122 911 1183 911 q 991 911 1061 911 q 860 911 921 911 q 758 912 799 911 q 718 914 718 913 l 718 1194 q 693 1187 713 1193 q 648 1172 674 1181 q 593 1154 622 1164 q 540 1135 564 1144 q 500 1117 515 1125 q 485 1107 485 1110 q 487 1064 485 1103 q 493 965 489 1025 q 502 828 497 904 q 512 674 507 753 q 522 518 517 594 q 531 380 526 442 q 538 278 535 318 q 540 232 540 239 l 717 232 q 736 310 724 260 q 762 415 749 361 q 785 512 775 468 q 799 571 796 556 q 722 572 758 571 q 658 573 685 572 q 615 574 631 574 q 599 574 599 574 q 601 684 601 629 q 603 796 601 739 z "},"h":{"ha":1294,"x_min":22,"x_max":1399,"o":"m 828 1632 q 871 1637 828 1636 q 977 1638 914 1638 q 1114 1636 1040 1638 q 1251 1633 1188 1635 q 1356 1631 1314 1632 q 1399 1632 1399 1631 q 1372 1231 1388 1432 q 1338 830 1356 1031 q 1305 428 1321 629 q 1276 26 1289 228 l 706 26 q 715 173 710 101 q 726 317 721 244 l 596 317 q 597 173 596 244 q 597 26 597 101 q 555 26 597 26 q 449 25 513 25 q 313 24 386 25 q 176 24 239 24 q 70 25 113 25 q 28 26 28 25 q 26 663 28 347 q 22 1300 24 979 q 65 1301 22 1300 q 170 1301 107 1301 q 308 1301 233 1301 q 445 1301 382 1301 q 551 1301 508 1301 q 593 1300 593 1300 q 594 909 593 1103 q 596 519 594 715 l 740 519 q 788 1076 764 799 q 828 1632 813 1353 z "},"i":{"ha":568,"x_min":0,"x_max":576,"o":"m 10 1069 q 51 1072 10 1071 q 156 1073 93 1072 q 293 1074 219 1074 q 430 1073 367 1074 q 535 1072 493 1072 q 576 1069 576 1071 q 572 549 576 807 q 568 29 567 292 q 526 27 568 28 q 422 26 485 26 q 285 25 358 25 q 148 26 211 25 q 43 27 85 26 q 1 29 1 28 q 5 549 0 292 q 10 1069 10 807 m 571 1172 q 529 1169 571 1171 q 424 1165 488 1167 q 288 1163 361 1164 q 151 1160 214 1161 q 46 1158 88 1158 q 4 1160 4 1158 q 3 1258 3 1208 q 1 1356 3 1307 q 43 1358 1 1357 q 148 1362 85 1360 q 285 1365 211 1364 q 422 1367 358 1367 q 526 1369 485 1368 q 568 1368 568 1369 q 569 1270 569 1319 q 571 1172 569 1221 z "},"j":{"ha":1142,"x_min":-46,"x_max":1235,"o":"m 1122 1340 q 1203 1339 1172 1339 q 1235 1338 1235 1339 q 1233 1236 1235 1286 q 1232 1135 1232 1186 q 1202 1133 1232 1133 q 1124 1132 1172 1132 q 1129 932 1126 1032 q 1133 731 1132 832 q 1133 553 1133 642 q 1125 374 1132 464 q 1121 322 1122 350 q 1115 265 1119 293 q 1103 210 1111 236 q 1078 165 1094 183 q 1016 112 1050 133 q 943 76 982 90 q 864 53 904 61 q 785 43 824 46 q 589 33 686 35 q 389 28 492 31 q 280 28 342 26 q 160 41 218 31 q 59 72 103 51 q 4 125 15 92 q -35 324 -28 221 q -46 532 -43 428 q -3 533 -46 532 q 101 534 39 533 q 238 535 164 535 q 375 535 313 535 q 480 534 438 535 q 522 532 522 533 q 525 385 522 460 q 540 238 528 310 q 563 398 560 317 q 567 558 565 479 q 565 845 569 703 q 556 1132 560 988 q 433 1133 483 1132 q 383 1135 383 1133 q 385 1236 385 1186 q 386 1338 386 1286 q 399 1338 386 1338 q 435 1340 413 1339 q 489 1340 458 1340 q 554 1340 519 1340 q 554 1375 554 1358 q 556 1408 554 1392 q 580 1411 556 1410 q 644 1413 604 1413 q 735 1413 683 1413 q 839 1413 786 1413 q 1122 1408 964 1411 l 1122 1375 l 1122 1340 z "},"k":{"ha":1490,"x_min":6,"x_max":1532,"o":"m 1114 622 q 1067 610 1108 613 q 970 608 1026 607 q 853 611 914 608 q 749 617 792 614 q 875 581 800 600 q 1033 541 950 561 q 1199 501 1117 521 q 1348 467 1282 482 q 1455 443 1414 453 q 1496 432 1496 433 l 1496 43 q 1454 41 1496 42 q 1350 40 1413 40 q 1214 40 1288 40 q 1078 40 1140 40 q 974 41 1015 40 q 932 43 932 42 l 932 346 q 933 389 932 372 q 929 416 933 406 q 913 433 925 426 q 872 446 900 439 q 821 457 860 449 q 735 476 782 465 q 644 496 689 486 q 576 511 600 506 q 574 275 575 393 q 571 39 574 157 q 529 37 571 38 q 424 35 488 36 q 288 35 361 35 q 152 37 215 36 q 47 38 89 38 q 6 39 6 39 q 13 684 11 364 q 32 1329 15 1004 q 74 1333 32 1332 q 178 1334 115 1335 q 313 1332 240 1333 q 449 1330 386 1331 q 553 1328 511 1329 q 594 1329 594 1328 q 583 1002 586 1165 q 576 675 579 839 q 772 1052 675 865 q 968 1429 868 1239 l 1532 1429 q 1323 1026 1428 1226 q 1114 622 1218 825 z "},"l":{"ha":1182,"x_min":31,"x_max":1338,"o":"m 782 453 q 823 458 782 457 q 926 459 864 460 q 1059 456 988 458 q 1192 453 1131 454 q 1295 451 1254 451 q 1338 453 1336 450 q 1267 281 1306 357 q 1172 149 1228 204 q 1040 63 1115 93 q 860 28 964 32 q 450 22 654 21 q 40 32 246 24 q 35 33 38 32 q 31 33 33 33 q 38 699 31 368 q 46 1365 44 1031 q 88 1367 46 1367 q 191 1369 129 1368 q 324 1369 253 1369 q 458 1369 396 1369 q 560 1367 519 1368 q 601 1365 601 1367 q 596 796 601 1079 q 588 226 590 513 q 640 226 615 226 q 683 225 665 226 q 763 307 744 251 q 782 453 782 363 z "},"m":{"ha":1665,"x_min":-8,"x_max":1689,"o":"m 1326 1349 q 1459 1351 1394 1350 q 1575 1351 1524 1351 q 1658 1351 1626 1351 q 1689 1350 1689 1350 q 1689 999 1689 1185 q 1689 626 1689 814 q 1689 253 1689 438 q 1689 -97 1689 68 q 1649 -100 1689 -99 q 1549 -102 1608 -101 q 1418 -102 1489 -103 q 1288 -101 1347 -101 q 1188 -99 1228 -100 q 1147 -97 1147 -99 q 1145 51 1147 -33 q 1141 224 1143 136 q 1137 397 1139 313 q 1136 547 1135 482 q 1117 453 1126 511 q 1097 331 1107 394 q 1078 210 1088 268 q 1058 115 1068 151 q 1027 111 1057 113 q 952 109 997 110 q 855 108 907 108 q 758 108 803 107 q 683 110 713 108 q 651 115 653 113 q 627 212 639 153 q 603 335 615 271 q 578 459 590 400 q 553 556 565 518 q 542 298 546 426 q 535 39 538 169 q 494 35 535 36 q 394 35 454 35 q 263 35 333 35 q 133 37 193 36 q 32 38 72 38 q -8 39 -8 39 q 17 694 1 368 q 40 1350 33 1021 q 89 1354 40 1353 q 211 1356 138 1356 q 371 1357 285 1357 q 531 1356 457 1357 q 654 1351 604 1354 q 706 1343 704 1349 q 773 1133 739 1238 q 839 922 807 1028 q 902 1133 871 1029 q 965 1343 933 1238 l 1326 1349 z "},"n":{"ha":1353,"x_min":-7,"x_max":1442,"o":"m 1442 1425 q 1406 1074 1421 1250 q 1377 722 1392 897 q 1346 370 1363 546 q 1304 21 1329 194 l 769 21 q 654 210 713 117 q 535 397 596 303 q 537 215 536 306 q 539 32 538 124 q 499 31 539 32 q 400 29 460 29 q 272 28 340 29 q 143 28 203 28 q 44 30 83 29 q 4 32 4 31 q -3 683 1 358 q 4 1335 -7 1007 l 539 1335 q 681 1038 604 1182 q 844 753 757 893 q 872 1089 858 921 q 906 1425 886 1257 l 1442 1425 z "},"o":{"ha":1257,"x_min":-15,"x_max":1251,"o":"m 742 1349 q 891 1333 810 1349 q 1044 1287 972 1317 q 1167 1213 1117 1257 q 1225 1111 1218 1169 q 1248 799 1244 957 q 1232 489 1251 642 q 1215 369 1225 436 q 1183 238 1204 303 q 1125 121 1161 174 q 1031 44 1089 68 q 958 30 1008 36 q 843 20 908 24 q 704 16 778 17 q 562 16 631 15 q 436 20 493 17 q 347 28 379 24 q 178 94 246 43 q 70 222 111 146 q 10 390 29 297 q -12 577 -8 482 q -9 765 -15 672 q 7 932 -3 857 q 35 1042 14 989 q 90 1141 57 1094 q 167 1225 124 1188 q 263 1288 211 1263 q 374 1328 315 1314 q 493 1347 432 1342 q 617 1352 554 1353 q 742 1349 679 1351 m 622 208 q 672 365 654 283 q 696 530 689 446 q 702 698 703 614 q 699 860 701 782 q 692 1016 696 932 q 663 1172 688 1100 q 589 1062 618 1121 q 551 932 560 1003 q 533 754 540 849 q 528 564 525 660 q 553 376 532 468 q 622 208 574 285 z "},"p":{"ha":1289,"x_min":-11,"x_max":1292,"o":"m -11 29 q -10 102 -11 47 q -8 237 -10 157 q -3 415 -6 317 q 3 620 0 514 q 10 835 7 726 q 18 1041 14 943 q 26 1222 22 1139 q 33 1361 31 1306 q 75 1366 33 1365 q 178 1366 117 1367 q 312 1364 240 1365 q 445 1361 383 1363 q 548 1360 507 1360 q 589 1361 589 1360 l 589 1349 q 641 1347 608 1347 q 713 1344 674 1346 q 790 1340 751 1342 q 861 1338 829 1339 q 913 1335 893 1336 q 931 1333 932 1333 q 1082 1290 1014 1325 q 1200 1163 1150 1254 q 1253 1028 1232 1103 q 1283 873 1275 954 q 1287 708 1292 792 q 1261 548 1282 625 q 1202 404 1240 471 q 1108 290 1164 338 q 985 228 1056 246 q 839 208 915 211 q 686 209 763 204 q 543 217 610 214 q 542 123 542 169 q 544 29 543 76 l 267 26 q 165 26 214 26 q 76 26 115 25 q 13 27 36 26 q -11 29 -11 28 m 589 811 q 564 633 574 721 q 548 475 554 558 q 544 326 542 392 q 549 308 544 314 q 556 302 551 303 q 569 313 561 301 q 640 406 611 353 q 688 517 669 458 q 717 636 707 575 q 728 756 726 697 q 726 837 729 793 q 717 926 724 881 q 700 1019 711 972 q 672 1108 689 1065 q 619 958 639 1036 q 589 811 600 881 z "},"q":{"ha":1283,"x_min":-51,"x_max":1393,"o":"m 869 1361 q 917 1357 883 1361 q 993 1344 950 1353 q 1085 1321 1036 1335 q 1176 1288 1133 1307 q 1253 1244 1219 1269 q 1303 1188 1288 1218 q 1380 904 1367 1053 q 1361 608 1393 756 q 1295 396 1338 504 q 1183 200 1253 288 q 1228 163 1208 179 q 1264 133 1249 146 q 1296 108 1281 118 q 1234 33 1265 69 q 1172 -42 1203 -4 q 1131 -10 1172 -43 q 1026 71 1089 22 q 921 41 989 53 q 772 24 853 29 q 603 18 690 18 q 441 23 517 18 q 308 36 365 28 q 231 57 251 44 q 122 149 168 93 q 49 272 76 206 q -8 431 15 347 q -42 601 -32 515 q -44 772 -51 686 q -6 935 -36 857 q 121 1133 43 1039 q 297 1289 199 1228 q 431 1344 361 1328 q 574 1365 501 1361 q 722 1365 647 1369 q 869 1361 796 1361 m 704 326 q 653 369 676 350 q 613 401 629 388 q 576 431 593 417 q 638 506 607 469 q 699 581 668 543 q 722 565 700 582 q 781 519 744 547 q 814 688 803 606 q 820 806 819 740 q 814 941 821 872 q 790 1076 807 1010 q 742 1199 772 1143 q 633 1072 681 1140 q 554 935 586 1003 q 519 774 528 867 q 518 583 510 682 q 555 385 526 483 q 632 210 583 288 q 670 266 651 238 q 704 326 689 294 z "},"r":{"ha":1378,"x_min":15,"x_max":1511,"o":"m 1117 329 q 1315 165 1217 247 q 1511 -1 1413 83 l 1139 -4 q 1002 -5 1069 -4 q 881 -5 935 -6 q 794 -3 828 -4 q 760 -1 761 -3 q 657 87 708 43 q 553 175 606 131 q 553 116 553 144 q 554 57 553 88 q 286 54 403 56 q 188 53 236 54 q 101 53 139 53 q 41 55 64 54 q 18 57 18 56 q 15 201 15 131 q 17 346 15 272 l 17 347 q 19 417 17 358 q 24 563 21 475 q 33 757 28 650 q 42 972 38 864 q 52 1180 47 1081 q 61 1353 57 1279 q 101 1358 61 1357 q 200 1358 140 1358 q 329 1356 260 1357 q 458 1353 399 1354 q 558 1351 518 1351 q 597 1353 597 1351 q 597 1347 597 1350 q 596 1340 596 1343 q 679 1338 624 1340 q 791 1333 735 1335 q 888 1328 847 1331 q 928 1325 929 1325 q 1003 1311 967 1321 q 1073 1283 1040 1301 q 1134 1234 1106 1264 q 1188 1160 1163 1204 q 1238 1034 1218 1104 q 1267 888 1258 964 q 1271 733 1275 811 q 1249 581 1267 654 q 1198 442 1231 507 q 1117 329 1165 378 m 731 764 q 722 931 733 839 q 678 1107 710 1022 q 626 961 646 1036 q 596 817 607 886 q 572 632 581 725 q 558 444 564 539 q 556 396 558 421 q 554 347 554 371 l 554 344 q 572 336 561 342 l 579 336 q 646 426 618 375 q 692 533 674 476 q 720 648 711 589 q 731 764 729 707 z "},"s":{"ha":1169,"x_min":-150,"x_max":1171,"o":"m 925 718 q 1006 715 964 718 q 1084 700 1049 713 q 1142 660 1119 688 q 1165 582 1165 633 q 1168 466 1165 526 q 1165 347 1171 406 q 1140 235 1160 289 q 1078 142 1121 182 q 942 58 1013 81 q 793 32 871 36 l 792 32 q 751 31 783 32 q 674 30 719 31 q 575 28 629 29 q 467 28 521 28 q 364 29 413 29 q 282 31 315 29 q 200 44 242 33 q 125 79 158 54 q 43 190 67 124 q 17 331 19 257 l -150 339 l -144 596 l 601 554 l 596 299 l 544 301 q 581 171 550 231 q 611 219 597 194 q 626 272 619 238 q 638 348 633 307 q 647 433 643 389 q 650 517 650 478 q 647 583 650 556 q 636 621 643 611 q 582 639 628 631 q 471 654 536 647 q 331 666 406 661 q 190 676 256 671 q 76 684 124 681 q 15 692 28 688 q -55 753 -32 708 q -85 856 -78 799 q -91 972 -93 913 q -87 1078 -89 1032 q -66 1166 -85 1128 q -16 1231 -47 1204 q 56 1272 15 1257 q 140 1293 96 1288 q 370 1310 254 1308 q 603 1310 486 1313 q 623 1375 614 1342 q 643 1440 632 1408 l 1165 1440 q 1131 1326 1150 1392 q 1092 1199 1111 1260 q 1046 1054 1069 1128 q 1017 967 1031 1010 q 992 881 1004 925 l 468 881 q 495 967 482 925 q 524 1054 508 1010 q 518 1157 535 1118 q 474 1200 501 1196 q 443 1131 450 1165 q 433 1051 436 1096 q 430 997 432 1025 q 427 939 428 968 q 430 881 426 910 q 442 826 433 853 q 460 781 449 804 q 492 746 471 758 q 513 734 503 739 q 535 725 524 729 q 730 720 635 722 q 925 718 825 718 z "},"t":{"ha":781,"x_min":-299,"x_max":1157,"o":"m 1157 983 l 707 982 q 695 513 701 746 q 688 43 689 279 q 647 41 688 42 q 547 40 607 40 q 417 40 488 40 q 286 40 346 40 q 186 41 226 40 q 146 43 146 42 q 153 511 146 278 q 165 979 160 744 l -286 978 l -299 1374 l 171 1375 l 171 1390 q 211 1392 171 1392 q 312 1393 251 1393 q 442 1393 372 1393 q 573 1393 513 1393 q 674 1392 633 1393 q 714 1390 714 1392 l 714 1376 l 1144 1378 l 1157 983 z "},"u":{"ha":1451,"x_min":-110,"x_max":1440,"o":"m 1401 1347 q 1419 1023 1422 1186 q 1409 697 1415 860 q 1405 372 1403 533 q 1440 50 1407 210 q 1171 35 1289 39 q 1072 32 1121 32 q 984 33 1022 32 q 922 39 946 35 q 896 50 897 43 l 896 53 q 720 47 810 46 q 543 49 631 47 q 334 56 436 49 q 147 95 232 63 q 0 197 61 128 q -87 392 -61 267 q -109 599 -108 492 q -100 814 -110 706 q -74 1028 -90 922 q -46 1235 -58 1135 q -22 1242 -46 1239 q 40 1245 1 1244 q 128 1246 79 1246 q 228 1244 176 1246 q 499 1235 347 1242 q 473 1051 488 1146 q 447 858 458 956 q 433 665 436 761 q 442 481 429 569 q 474 332 453 407 q 540 196 494 257 q 622 169 581 169 q 703 196 663 168 q 796 351 763 263 q 844 540 829 439 q 863 749 860 640 q 863 963 865 857 q 856 1167 860 1069 q 857 1347 853 1265 q 1129 1351 1010 1350 q 1229 1352 1181 1351 q 1316 1352 1278 1353 q 1378 1350 1354 1351 q 1401 1347 1401 1349 z "},"v":{"ha":1149,"x_min":-44,"x_max":1324,"o":"m 1243 1364 q 1221 654 1324 986 q 849 47 1118 322 q 799 37 842 40 q 697 33 757 33 q 569 33 638 32 q 444 38 501 35 q 347 43 386 40 q 304 47 307 46 q 167 173 225 99 q 68 335 108 247 q 3 520 28 422 q -32 717 -21 618 q -44 914 -43 817 q -37 1097 -44 1011 q 3 1103 -37 1101 q 105 1103 44 1104 q 235 1099 165 1101 q 366 1096 306 1097 q 467 1094 426 1094 q 507 1097 507 1094 q 500 936 500 1021 q 508 764 500 851 q 532 589 515 676 q 578 419 549 501 q 722 869 690 633 q 697 1364 754 1106 l 1243 1364 z "},"w":{"ha":1550,"x_min":-90,"x_max":1688,"o":"m 1135 1349 q 1406 1360 1286 1356 q 1506 1362 1457 1361 q 1592 1361 1554 1363 q 1654 1357 1631 1360 q 1679 1349 1678 1354 q 1685 1197 1688 1285 q 1670 1010 1682 1110 q 1640 802 1658 910 q 1600 591 1622 694 q 1553 394 1578 488 q 1507 226 1529 300 q 1465 104 1485 151 q 1433 46 1446 57 q 1384 31 1422 36 q 1292 25 1346 26 q 1176 24 1239 24 q 1053 27 1113 25 q 944 32 994 29 q 864 36 893 35 q 819 49 833 38 q 795 78 804 60 q 778 122 786 97 q 751 176 769 147 q 707 108 732 139 q 654 54 682 78 q 603 43 646 47 q 501 37 560 39 q 377 35 443 35 q 256 35 311 35 q 165 38 200 36 q 131 39 129 39 q 84 65 100 46 q 50 132 68 85 q 2 297 21 214 q -32 467 -17 381 q -63 671 -49 567 q -84 880 -78 775 q -86 1089 -90 985 q -62 1294 -82 1193 q -37 1305 -61 1301 q 26 1310 -12 1308 q 113 1310 64 1311 q 213 1308 163 1310 q 482 1294 331 1304 q 469 1194 474 1253 q 462 1070 464 1136 q 460 935 460 1004 q 465 801 461 865 q 476 681 469 736 q 493 586 483 625 q 514 701 506 629 q 529 852 522 774 q 544 1003 536 931 q 564 1118 551 1075 q 597 1125 565 1124 q 678 1126 629 1126 q 784 1125 726 1126 q 892 1122 842 1124 q 981 1119 943 1121 q 1026 1118 1018 1118 q 1031 1013 1028 1072 q 1040 892 1035 954 q 1051 770 1046 831 q 1062 663 1057 710 q 1070 586 1067 615 q 1074 556 1074 557 q 1140 950 1118 750 q 1135 1349 1163 1150 z "},"x":{"ha":1282,"x_min":-78,"x_max":1404,"o":"m 1404 1353 q 1158 980 1283 1163 q 903 614 1033 797 q 1120 328 1014 472 q 1328 38 1226 185 l 782 38 q 711 142 747 90 q 638 247 675 194 q 616 220 635 244 q 571 163 597 196 q 516 94 544 129 q 467 38 488 60 l -78 38 q -28 101 -65 53 q 56 213 8 149 q 157 347 104 276 q 254 476 210 417 q 328 574 299 535 q 358 614 357 613 q 133 908 244 761 q -78 1211 22 1056 l 467 1211 q 541 1099 503 1154 q 619 989 579 1043 q 742 1170 682 1079 q 860 1353 801 1261 l 1404 1353 z "},"y":{"ha":1218,"x_min":-181,"x_max":1464,"o":"m 1464 1368 q 1322 703 1397 1033 q 1179 38 1246 372 q 1128 33 1179 35 q 995 31 1078 32 q 808 30 913 31 q 592 29 703 29 q 377 30 482 29 q 190 31 272 31 q 56 33 107 32 q 6 38 6 35 q -26 193 -10 117 q -56 349 -42 269 l 500 349 q 510 294 506 321 q 521 239 515 267 l 665 239 q 683 322 674 281 q 701 407 692 364 q 685 407 699 407 q 651 407 672 407 q 603 407 629 407 q 549 407 576 407 q 404 408 483 407 q 100 853 251 631 q -181 1314 -51 1076 l 375 1314 q 561 998 463 1151 q 764 693 660 844 q 838 1029 801 861 q 908 1368 875 1197 l 1464 1368 z "},"z":{"ha":1513,"x_min":-51,"x_max":1614,"o":"m 567 344 q 528 287 543 315 q 508 207 514 258 q 606 208 544 208 q 736 208 668 208 q 867 208 804 208 q 969 207 931 208 q 981 285 976 251 q 990 351 986 319 q 999 416 994 382 q 1013 494 1004 450 l 1557 494 q 1550 440 1554 478 q 1540 353 1546 401 q 1527 252 1535 304 q 1509 157 1519 200 q 1486 85 1499 114 q 1458 54 1474 56 q 1340 49 1422 51 q 1150 44 1257 46 q 922 42 1043 43 q 685 40 800 40 q 474 40 571 40 q 318 42 376 40 q 236 40 290 42 q 126 42 182 39 q 25 56 71 44 q -32 93 -21 68 q -43 192 -51 140 q -10 294 -35 244 q 51 383 15 343 q 119 444 86 422 q 250 519 164 474 q 440 615 336 564 q 654 717 544 665 q 855 810 764 768 q 1006 879 946 851 q 1071 910 1065 907 q 1035 930 1064 914 q 967 968 1007 946 q 883 1015 928 990 q 798 1063 839 1040 q 726 1102 757 1085 q 683 1125 694 1119 q 626 909 656 1017 q 560 696 596 801 l 15 696 q 114 1030 72 860 q 206 1368 156 1200 l 750 1368 q 867 1309 796 1346 q 1022 1228 939 1272 q 1193 1139 1106 1185 q 1356 1053 1281 1093 q 1490 981 1432 1013 q 1571 936 1547 950 q 1606 912 1597 921 q 1609 896 1614 903 q 1589 883 1604 889 q 1556 867 1574 876 q 1508 844 1547 863 q 1413 799 1469 825 q 1289 740 1357 772 q 1152 675 1221 707 q 1021 614 1083 643 q 914 564 958 585 q 819 521 867 542 q 727 475 772 500 q 641 419 682 450 q 567 344 600 388 z "},"":{"ha":374,"x_min":90,"x_max":421,"o":"m 90 1040 q 190 1210 142 1124 q 290 1379 238 1296 l 421 1296 q 322 1127 369 1213 q 222 958 274 1042 l 90 1040 z "},"C":{"ha":1256,"x_min":24,"x_max":1281,"o":"m 746 1353 q 803 1354 758 1354 q 907 1355 847 1354 q 1032 1356 967 1356 q 1153 1355 1097 1356 q 1244 1353 1208 1354 q 1281 1351 1281 1353 q 1281 1026 1281 1188 q 1271 700 1281 864 q 1230 695 1271 696 q 1128 695 1189 694 q 998 697 1068 696 q 867 700 928 699 q 766 701 807 701 q 725 700 725 701 q 735 960 733 831 q 736 1221 736 1090 q 689 1204 718 1214 q 633 1181 660 1194 q 587 1152 606 1168 q 571 1119 568 1136 q 606 855 589 986 q 640 589 622 724 q 662 424 651 506 q 683 260 672 343 q 695 420 690 340 q 703 581 700 500 q 743 584 703 583 q 844 585 783 585 q 975 583 904 585 q 1106 581 1046 582 q 1207 580 1167 581 q 1247 581 1247 579 q 1232 307 1240 443 q 1203 35 1224 171 q 1169 31 1203 32 q 1080 28 1135 29 q 955 28 1025 28 q 810 31 885 29 q 662 34 735 32 q 528 38 589 36 q 427 40 468 39 q 375 43 386 42 q 317 47 353 44 q 248 56 282 49 q 188 78 214 63 q 157 125 161 94 q 124 370 140 249 q 92 615 108 492 q 58 873 75 746 q 25 1131 42 1000 q 65 1162 24 1142 q 174 1206 107 1182 q 322 1256 240 1231 q 484 1301 404 1281 q 631 1335 564 1321 q 736 1351 699 1349 q 741 1352 739 1351 q 746 1353 743 1353 m 1046 38 q 1029 25 1038 32 q 997 -12 1013 11 q 978 -83 981 -35 q 978 -212 976 -131 q 982 -288 979 -253 q 985 -350 985 -324 q 982 -391 986 -376 q 964 -406 978 -406 q 961 -404 961 -406 q 960 -405 960 -404 q 957 -406 960 -406 q 940 -385 943 -406 q 937 -334 936 -364 q 941 -271 938 -304 q 944 -212 944 -237 q 945 -112 946 -161 q 939 -37 944 -64 q 933 -10 935 -24 q 928 14 931 3 q 924 38 925 26 l 929 38 l 1040 38 l 1046 38 m 1143 31 q 1134 21 1139 26 q 1124 8 1129 15 q 1114 -35 1115 -6 q 1115 -117 1113 -65 q 1118 -201 1115 -167 q 1106 -235 1121 -235 l 1101 -235 q 1092 -222 1094 -235 q 1091 -192 1090 -210 q 1094 -153 1092 -174 q 1096 -117 1096 -132 q 1095 -54 1096 -85 q 1090 -7 1094 -24 q 1088 9 1089 1 q 1086 24 1088 17 q 1085 39 1085 31 l 1086 39 l 1149 39 l 1151 39 l 1143 31 m 492 49 q 475 42 483 46 q 443 22 461 36 q 424 -17 425 10 q 422 -87 422 -43 q 426 -129 422 -110 q 430 -162 429 -149 q 426 -185 431 -176 q 407 -193 421 -193 l 404 -193 l 403 -193 q 383 -182 388 -193 q 380 -154 379 -171 q 384 -119 381 -137 q 388 -87 388 -101 q 388 -33 389 -60 q 381 8 388 -7 q 376 22 378 15 q 371 36 374 29 q 367 49 368 42 l 372 49 l 486 49 l 492 49 z "}}}
